<svg width="90" height="61" viewBox="0 0 90 61" fill="none" xmlns="http://www.w3.org/2000/svg">
<path d="M0.550781 54.0093H1.72615V59.8914H0.550781V54.0093ZM11.3686 58.2989H9.19088L8.63646 59.8914H7.45222L9.71869 53.9295H10.8408L13.1162 59.8914H11.9231L11.3686 58.2989ZM11.0759 57.4694L10.282 55.1671L9.47918 57.4694H11.0759ZM21.4236 54.0093V59.8914H20.2749V58.0815L20.3547 55.8236L18.8422 58.2279H17.9774L16.4471 55.7882L16.5447 58.0815V59.8914H15.396V54.0093H16.4871L18.4165 57.0258L20.3458 54.0093H21.4236ZM33.9624 54.0093V59.8914H32.8137V58.0815L32.8935 55.8236L31.381 58.2279H30.5161L28.9859 55.7882L29.0791 58.0815V59.8914H27.9303V54.0093H29.0214L30.9508 57.0258L32.8802 54.0093H33.9624ZM40.1498 58.2989H37.972L37.4176 59.8914H36.2333L38.4998 53.9295H39.622L41.8973 59.8914H40.7042L40.1498 58.2989ZM39.857 57.4694L39.0631 55.1671L38.2603 57.4694H39.857ZM46.3061 57.5137H45.3436V59.8914H44.1682V54.0093H46.3327C47.8185 54.0093 48.5637 54.5727 48.5637 55.7039C48.5637 56.5334 48.2 57.0657 47.4726 57.3053L49.2467 59.8914H47.8895L46.3061 57.5137ZM45.3436 56.6753H46.3282C46.6919 56.6753 46.9581 56.5999 47.1222 56.4491C47.2952 56.2983 47.3794 56.0721 47.3794 55.766C47.3794 55.1538 47.029 54.8477 46.3238 54.8477H45.3392V56.6753H45.3436ZM51.6241 54.0093H52.7995V59.8914H51.6241V54.0093ZM56.7691 59.8914H55.3409L52.8305 56.8217V56.6487L55.1147 54.0093H56.4808L53.997 56.7153L56.7691 59.8914ZM62.8677 59.053V59.8914H59.0711V54.0093H62.6948V54.8477H60.2464V56.3604H62.3488V57.1988H60.2464V59.0486H62.8677V59.053ZM69.6095 54.8566H67.8176V59.8914H66.6422V54.8566H64.8504V54.0093H69.6095V54.8566ZM72.009 54.0093H73.1844V59.8914H72.009V54.0093ZM81.3677 54.0093V59.8914L80.3209 59.9003L77.3093 55.7482L77.3936 57.7311V59.8959H76.2182V54.0138H77.265L80.2766 58.157L80.1923 56.0632V54.0138H81.3677V54.0093ZM89.1784 57.0613V59.572C88.9255 59.7007 88.6151 59.8027 88.2425 59.8826C87.8788 59.9624 87.4974 60.0023 87.0937 60.0023C86.4151 60.0023 85.8385 59.8648 85.3639 59.5853C84.8982 59.3014 84.5434 58.9288 84.3083 58.4675C84.0777 58.0017 83.9624 57.4916 83.9624 56.9371C83.9624 56.3914 84.0821 55.8858 84.3261 55.4244C84.5744 54.9631 84.9382 54.5949 85.426 54.3154C85.9139 54.036 86.495 53.8984 87.1824 53.8984C87.5461 53.8984 87.8877 53.9472 88.2026 54.0448C88.5264 54.1424 88.8014 54.2799 89.032 54.4529L88.7215 55.2558C88.5264 55.1095 88.2957 54.9941 88.0296 54.901C87.7724 54.8078 87.4885 54.7635 87.1824 54.7635C86.7566 54.7635 86.3885 54.8566 86.0736 55.0474C85.7676 55.2381 85.5325 55.4998 85.3728 55.837C85.2176 56.1652 85.1377 56.5334 85.1377 56.9459C85.1377 57.3674 85.2131 57.7444 85.3639 58.0771C85.5147 58.4054 85.7365 58.6671 86.0292 58.8578C86.322 59.0486 86.6768 59.1417 87.0937 59.1417C87.3776 59.1417 87.6925 59.1107 88.0385 59.0442V57.0568H89.1784V57.0613Z" fill="white"/>
<path d="M0.550781 54.0093H1.72615V59.8914H0.550781V54.0093ZM11.3686 58.2989H9.19088L8.63646 59.8914H7.45222L9.71869 53.9295H10.8408L13.1162 59.8914H11.9231L11.3686 58.2989ZM11.0759 57.4694L10.282 55.1671L9.47918 57.4694H11.0759ZM21.4236 54.0093V59.8914H20.2749V58.0815L20.3547 55.8236L18.8422 58.2279H17.9774L16.4471 55.7882L16.5447 58.0815V59.8914H15.396V54.0093H16.4871L18.4165 57.0258L20.3458 54.0093H21.4236ZM33.9624 54.0093V59.8914H32.8137V58.0815L32.8935 55.8236L31.381 58.2279H30.5161L28.9859 55.7882L29.0791 58.0815V59.8914H27.9303V54.0093H29.0214L30.9508 57.0258L32.8802 54.0093H33.9624ZM40.1498 58.2989H37.972L37.4176 59.8914H36.2333L38.4998 53.9295H39.622L41.8973 59.8914H40.7042L40.1498 58.2989ZM39.857 57.4694L39.0631 55.1671L38.2603 57.4694H39.857ZM46.3061 57.5137H45.3436V59.8914H44.1682V54.0093H46.3327C47.8185 54.0093 48.5637 54.5727 48.5637 55.7039C48.5637 56.5334 48.2 57.0657 47.4726 57.3053L49.2467 59.8914H47.8895L46.3061 57.5137ZM45.3436 56.6753H46.3282C46.6919 56.6753 46.9581 56.5999 47.1222 56.4491C47.2952 56.2983 47.3794 56.0721 47.3794 55.766C47.3794 55.1538 47.029 54.8477 46.3238 54.8477H45.3392V56.6753H45.3436ZM51.6241 54.0093H52.7995V59.8914H51.6241V54.0093ZM56.7691 59.8914H55.3409L52.8305 56.8217V56.6487L55.1147 54.0093H56.4808L53.997 56.7153L56.7691 59.8914ZM62.8677 59.053V59.8914H59.0711V54.0093H62.6948V54.8477H60.2464V56.3604H62.3488V57.1988H60.2464V59.0486H62.8677V59.053ZM69.6095 54.8566H67.8176V59.8914H66.6422V54.8566H64.8504V54.0093H69.6095V54.8566ZM72.009 54.0093H73.1844V59.8914H72.009V54.0093ZM81.3677 54.0093V59.8914L80.3209 59.9003L77.3093 55.7482L77.3936 57.7311V59.8959H76.2182V54.0138H77.265L80.2766 58.157L80.1923 56.0632V54.0138H81.3677V54.0093ZM89.1784 57.0613V59.572C88.9255 59.7007 88.6151 59.8027 88.2425 59.8826C87.8788 59.9624 87.4974 60.0023 87.0937 60.0023C86.4151 60.0023 85.8385 59.8648 85.3639 59.5853C84.8982 59.3014 84.5434 58.9288 84.3083 58.4675C84.0777 58.0017 83.9624 57.4916 83.9624 56.9371C83.9624 56.3914 84.0821 55.8858 84.3261 55.4244C84.5744 54.9631 84.9382 54.5949 85.426 54.3154C85.9139 54.036 86.495 53.8984 87.1824 53.8984C87.5461 53.8984 87.8877 53.9472 88.2026 54.0448C88.5264 54.1424 88.8014 54.2799 89.032 54.4529L88.7215 55.2558C88.5264 55.1095 88.2957 54.9941 88.0296 54.901C87.7724 54.8078 87.4885 54.7635 87.1824 54.7635C86.7566 54.7635 86.3885 54.8566 86.0736 55.0474C85.7676 55.2381 85.5325 55.4998 85.3728 55.837C85.2176 56.1652 85.1377 56.5334 85.1377 56.9459C85.1377 57.3674 85.2131 57.7444 85.3639 58.0771C85.5147 58.4054 85.7365 58.6671 86.0292 58.8578C86.322 59.0486 86.6768 59.1417 87.0937 59.1417C87.3776 59.1417 87.6925 59.1107 88.0385 59.0442V57.0568H89.1784V57.0613Z" fill="white"/>
<path d="M89.5494 0H87.5535H2.39435H0.398438V1.99618V45.0694V47.0656H2.39435H87.5535H89.5494V45.0694V1.99618V0ZM2.39435 45.0694V1.99618H87.5535V45.0694H2.39435Z" fill="white"/>
<path d="M89.5494 0H87.5535H2.39435H0.398438V1.99618V45.0694V47.0656H2.39435H87.5535H89.5494V45.0694V1.99618V0ZM2.39435 45.0694V1.99618H87.5535V45.0694H2.39435Z" fill="white"/>
<path d="M13.8379 31.3189H17.0092V15.793H13.8379V31.3189Z" fill="white"/>
<path d="M13.8379 31.3189H17.0092V15.793H13.8379V31.3189Z" fill="white"/>
<path d="M42.5568 31.3189H45.9277L40.1173 15.793H36.1033L30.293 31.3189H33.6417L34.9723 27.6592H41.2483L42.5568 31.3189ZM36.059 24.6427L38.0992 19.009L40.1395 24.6427H36.059Z" fill="white"/>
<path d="M42.5568 31.3189H45.9277L40.1173 15.793H36.1033L30.293 31.3189H33.6417L34.9723 27.6592H41.2483L42.5568 31.3189ZM36.059 24.6427L38.0992 19.009L40.1395 24.6427H36.059Z" fill="white"/>
<path d="M67.5907 15.793L63.621 21.7593L59.6292 15.793H55.9922V31.3189H59.1635V20.1846L63.4658 26.7276H63.7541L68.0786 20.1846V31.3189H71.2499V15.793H67.5907Z" fill="white"/>
<path d="M67.5907 15.793L63.621 21.7593L59.6292 15.793H55.9922V31.3189H59.1635V20.1846L63.4658 26.7276H63.7541L68.0786 20.1846V31.3189H71.2499V15.793H67.5907Z" fill="white"/>
<path d="M23.3304 27.9883H20.0039V31.3153H23.3304V27.9883Z" fill="white"/>
<path d="M23.3304 27.9883H20.0039V31.3153H23.3304V27.9883Z" fill="white"/>
<path d="M51.2269 27.9883H47.9004V31.3153H51.2269V27.9883Z" fill="white"/>
<path d="M51.2269 27.9883H47.9004V31.3153H51.2269V27.9883Z" fill="white"/>
<path d="M77.5746 27.9883H74.248V31.3153H77.5746V27.9883Z" fill="white"/>
<path d="M77.5746 27.9883H74.248V31.3153H77.5746V27.9883Z" fill="white"/>
</svg>
