<svg width="135" height="66" viewBox="0 0 135 66" fill="none" xmlns="http://www.w3.org/2000/svg">
<g clip-path="url(#clip0)">
<path fill-rule="evenodd" clip-rule="evenodd" d="M32.9806 -0.000250556C40.0497 0.000910474 46.9315 2.27798 52.612 6.49543C58.2925 10.7129 62.4712 16.6476 64.5323 23.4252H62.5039V27.8019H79.3806V28.8802H62.5039H38.5229V30.7563H35.0822L35.5719 30.2055H34.3728V28.9803H34.536L35.5719 27.7952H34.3728V26.56H34.536L35.5719 25.3782H34.3728V24.1397H34.536L35.5719 22.9579H34.3728V21.7193H34.536L35.5719 20.5409H34.3728V19.299H34.536L35.5719 18.1139H27.7547V14.5518L27.1452 14.3916L26.9587 15.1026L24.5039 13.577V10.0884L23.8944 9.4741V3.13116L23.0151 2.88746V9.28382L22.4256 9.13359L21.9959 9.87137V11.7843L18.895 9.98822L17.7959 11.0832V14.702L16.4303 14.5384L10.968 17.5964V18.6313L10.102 19.5227V20.0601L11.1245 20.3272V34.6823L10.3551 35.4468V36.3248H0.159836C0.0511036 35.2343 -0.00225509 34.139 -3.65765e-05 33.0431C-3.65765e-05 24.2777 3.474 15.8713 9.65781 9.67321C15.8416 3.47512 24.2287 -0.00692749 32.9739 -0.00692749L32.9806 -0.000250556ZM42.0368 64.8513C41.4972 65.0049 40.9576 65.1484 40.4114 65.2753L33.3936 61.2692L31.9747 62.0237L13.2628 49.9054L17.7926 49.7518V48.343L6.08182 41.2522L10.122 41.0353L21.0567 46.3767V52.5227L42.0401 64.8747L42.0368 64.8513ZM21.0533 43.302V39.7233L17.6294 38.7885V41.7263L21.0533 43.302ZM30.1961 66.0031L1.84518 43.9697C2.05501 44.584 2.28483 45.1882 2.53463 45.7891L7.40411 49.5148L6.4049 50.2091L3.5838 48.0559C6.13436 53.0669 9.9169 57.3437 14.5744 60.4827C19.2318 63.6217 24.6105 65.5193 30.2028 65.9964L30.1961 66.0031ZM0.666104 39.7166C0.562852 39.2325 0.479587 38.7585 0.402981 38.261L10.7981 38.1876L10.7581 39.0623L0.666104 39.7299V39.7166ZM33.1738 19.299H27.7547V20.5375H33.1804V19.299H33.1738ZM33.1738 21.716H27.7547V22.9712H33.1804V21.7327L33.1738 21.716ZM33.1738 24.1363H27.7547V25.3749H33.1804V24.1363H33.1738ZM33.1738 26.5567H27.7547V27.7919H33.1804V26.5567H33.1738ZM33.1738 28.977H27.7547V30.2122H33.1804V28.9803L33.1738 28.977ZM16.8966 16.4146V36.7087H17.8092V16.4146H16.8966ZM23.3215 11.3436V30.7563H23.8112V11.6207L23.3215 11.3336V11.3436ZM19.811 12.2884V36.1679H21.443V13.2532L19.811 12.285V12.2884ZM12.0005 37.6201V41.0686L15.6043 42.8313V38.5982L12.0005 37.6201Z" fill="url(#paint0_radial)"/>
<path fill-rule="evenodd" clip-rule="evenodd" d="M96.3903 31.7374C96.6877 31.7368 96.9786 31.8246 97.2261 31.9898C97.4737 32.155 97.6667 32.3901 97.7808 32.6653C97.8949 32.9406 97.925 33.2436 97.8671 33.536C97.8093 33.8283 97.6661 34.0969 97.4558 34.3077C97.2456 34.5185 96.9776 34.6619 96.6859 34.7199C96.3942 34.7779 96.0919 34.7478 95.8173 34.6334C95.5427 34.5191 95.3081 34.3256 95.1433 34.0775C94.9785 33.8293 94.8909 33.5378 94.8915 33.2397C94.8924 32.8416 95.0506 32.46 95.3315 32.1784C95.6124 31.8969 95.9931 31.7383 96.3903 31.7374ZM96.3903 31.9578C96.1366 31.9578 95.8885 32.0333 95.6776 32.1746C95.4666 32.316 95.3023 32.5169 95.2053 32.752C95.1084 32.987 95.0832 33.2456 95.1329 33.495C95.1827 33.7445 95.3051 33.9735 95.4848 34.1531C95.6645 34.3327 95.8932 34.4548 96.1422 34.5041C96.3912 34.5533 96.6491 34.5273 96.8834 34.4295C97.1176 34.3318 97.3177 34.1665 97.4582 33.9547C97.5987 33.7429 97.6733 33.4941 97.6726 33.2397C97.6718 32.8994 97.5363 32.5734 97.2959 32.3331C97.0555 32.0927 96.7299 31.9578 96.3903 31.9578ZM95.7941 32.4185V34.0643C95.7941 34.0705 95.7966 34.0765 95.801 34.0808C95.8053 34.0852 95.8113 34.0877 95.8175 34.0877H96.1139C96.1171 34.0883 96.1204 34.0881 96.1235 34.0871C96.1266 34.0862 96.1294 34.0845 96.1317 34.0822C96.134 34.0799 96.1357 34.077 96.1367 34.0739C96.1376 34.0708 96.1378 34.0675 96.1372 34.0643V33.4868C96.1372 33.4701 96.1372 33.4601 96.1605 33.4601H96.447C96.4819 33.467 96.5137 33.4851 96.5377 33.5115C96.5617 33.5379 96.5766 33.5714 96.5802 33.6069L96.7267 34.0209C96.7321 34.0355 96.74 34.0491 96.75 34.061C96.75 34.0777 96.77 34.0877 96.78 34.0877H97.1131V34.0677C97.1034 34.0586 97.0965 34.0471 97.0931 34.0343L96.9632 33.637C96.9539 33.5989 96.9405 33.562 96.9232 33.5268C96.9041 33.482 96.8783 33.4403 96.8466 33.4033C96.8823 33.3852 96.9149 33.3615 96.9432 33.3332L97.0132 33.2464C97.0512 33.1499 97.0671 33.0461 97.0598 32.9426V32.8892C97.0665 32.768 97.0273 32.6487 96.9499 32.5554C96.9145 32.5167 96.8714 32.486 96.8233 32.4652C96.782 32.4484 96.738 32.4393 96.6934 32.4385H95.8175C95.8113 32.4385 95.8053 32.441 95.801 32.4454C95.7966 32.4497 95.7941 32.4557 95.7941 32.4619V32.4185ZM96.6202 32.7022H96.1605C96.1439 32.7022 96.1372 32.7022 96.1372 32.7256V33.1095C96.1372 33.1095 96.1372 33.1329 96.1639 33.1329H96.5868C96.6146 33.1315 96.6408 33.1195 96.6601 33.0995C96.6857 33.0789 96.7043 33.0509 96.7134 33.0194C96.7187 32.9795 96.7187 32.9391 96.7134 32.8992C96.7152 32.8792 96.7152 32.8591 96.7134 32.8391C96.7114 32.8204 96.7057 32.8022 96.6968 32.7857C96.7001 32.7356 96.6568 32.7056 96.6202 32.7022Z" fill="#1E1E1E"/>
<path d="M36.6512 31.7445V48.3697H35.0025V34.3485L32.1914 37.994L29.3969 34.3518V48.373H27.7316V31.7479H29.3969L32.1914 35.2832L35.0025 31.7479L36.6512 31.7445ZM40.1351 43.4856H43.4658V34.9394C43.4909 34.4493 43.3383 33.9667 43.0361 33.5806C42.8909 33.4161 42.7109 33.2862 42.5092 33.2001C42.3076 33.1141 42.0894 33.0741 41.8704 33.0832C41.6374 33.0739 41.4051 33.1147 41.1891 33.2028C40.9731 33.2909 40.7784 33.4243 40.618 33.594C40.2925 33.9668 40.1231 34.4511 40.1451 34.946V43.4856H40.1351ZM45.1045 45.0447V48.3831H43.4558V45.0447H40.1251V48.3831H38.4598V45.0447H37.6371V43.4856H38.4598V35.7406C38.4598 35.2999 38.4598 34.9394 38.4997 34.6422C38.5041 34.3921 38.5376 34.1434 38.5996 33.9011C38.644 33.684 38.7203 33.4747 38.8261 33.2802C39.0072 32.9302 39.2498 32.6158 39.5422 32.3521C39.8393 32.0953 40.177 31.8899 40.5414 31.7445C40.9321 31.6072 41.3432 31.5372 41.7572 31.5375C42.2846 31.5141 42.8094 31.6241 43.2832 31.8575C43.7571 32.0909 44.1646 32.4401 44.4683 32.8729C44.7084 33.2007 44.8785 33.5746 44.9679 33.9712C45.0634 34.5222 45.1035 35.0814 45.0879 35.6404V43.4923H45.9139V45.0513L45.1045 45.0447ZM48.5851 48.3831H46.9197V31.7579H48.5851V35.2932L51.4895 31.7579H53.5545L50.7367 35.1163L54.0408 48.3697H52.3288L49.4711 36.5785L48.5951 37.6268V48.3697L48.5851 48.3831ZM56.3989 33.6073V43.3922C57.4021 43.0246 58.2684 42.3568 58.8803 41.4793C59.4946 40.5983 59.824 39.5495 59.824 38.4747C59.824 37.3999 59.4946 36.3511 58.8803 35.4702C58.2688 34.6062 57.4072 33.9512 56.4122 33.594L56.3989 33.6073ZM54.7336 48.3697V31.651C55.2956 31.6528 55.8551 31.7258 56.3989 31.868C57.357 32.1258 58.2487 32.5869 59.0135 33.2201C59.7761 33.8614 60.3937 34.658 60.8254 35.557C61.2635 36.4729 61.4912 37.4756 61.4916 38.4914C61.5094 40.012 61.0049 41.4925 60.0627 42.6844C59.1477 43.8866 57.8581 44.7479 56.3989 45.1315V48.3697H54.7336ZM70.641 33.1934C69.4379 33.185 68.2545 33.4997 67.2137 34.1048C66.1842 34.7187 65.326 35.5834 64.719 36.6186C64.1167 37.6622 63.7996 38.8465 63.7996 40.0521C63.7996 41.2577 64.1167 42.442 64.719 43.4856C65.3159 44.5277 66.1764 45.3937 67.2137 45.9961C68.2548 46.6017 69.4372 46.9207 70.641 46.9207C71.8448 46.9207 73.0271 46.6017 74.0683 45.9961C75.1047 45.3936 75.9641 44.5276 76.5597 43.4856C77.162 42.442 77.4791 41.2577 77.4791 40.0521C77.4791 38.8465 77.162 37.6622 76.5597 36.6186C75.9529 35.5843 75.0961 34.7198 74.0683 34.1048C73.0273 33.5002 71.8441 33.1855 70.641 33.1934ZM70.641 31.5242C72.1305 31.5149 73.5947 31.9106 74.8777 32.6693C76.1736 33.4129 77.2485 34.4892 77.9918 35.7873C78.7402 37.0804 79.1344 38.5488 79.1344 40.0438C79.1344 41.5387 78.7402 43.0071 77.9918 44.3002C77.2494 45.599 76.1743 46.6755 74.8777 47.4183C73.595 48.1779 72.1308 48.5748 70.641 48.5667C69.528 48.5669 68.4257 48.3479 67.3969 47.9224C65.8401 47.2765 64.5091 46.1829 63.5719 44.7795C62.6347 43.3761 62.1333 41.7258 62.1311 40.0371C62.1233 38.5428 62.5193 37.0743 63.2768 35.7873C64.018 34.4886 65.092 33.4121 66.3877 32.6693C67.6754 31.9075 69.1458 31.5117 70.641 31.5242ZM86.8515 33.3303V48.353H85.1862V33.3303H81.9554V48.353H80.29V33.3303H79.464V31.7846H87.7075V33.3436L86.8515 33.3303ZM90.5952 33.594V43.3788C91.5985 43.0112 92.4647 42.3435 93.0766 41.4659C93.6924 40.5927 94.0187 39.5474 94.0092 38.478C94.023 37.4009 93.6914 36.3477 93.0633 35.4735C92.4525 34.6087 91.5907 33.9536 90.5952 33.5973V33.594ZM88.9299 48.3563V31.651C89.4919 31.6528 90.0514 31.7258 90.5952 31.868C91.5533 32.1258 92.445 32.5869 93.2098 33.2201C93.9724 33.8614 94.59 34.658 95.0217 35.557C95.4599 36.4729 95.6875 37.4756 95.6879 38.4914C95.7076 40.0112 95.2055 41.4916 94.2657 42.6844C93.3506 43.8866 92.0611 44.7479 90.6019 45.1315V48.3697L88.9299 48.3563ZM104.837 33.18C103.634 33.1722 102.451 33.4868 101.41 34.0914C100.381 34.7054 99.5244 35.5702 98.9186 36.6052C98.3144 37.6481 97.9961 38.8327 97.9961 40.0387C97.9961 41.2448 98.3144 42.4294 98.9186 43.4723C99.5142 44.5143 100.374 45.3802 101.41 45.9828C102.451 46.5884 103.634 46.9074 104.837 46.9074C106.041 46.9074 107.223 46.5884 108.265 45.9828C109.301 45.3802 110.16 44.5143 110.756 43.4723C111.36 42.4294 111.679 41.2448 111.679 40.0387C111.679 38.8327 111.36 37.6481 110.756 36.6052C110.151 35.5695 109.294 34.7045 108.265 34.0914C107.224 33.4868 106.04 33.1722 104.837 33.18ZM104.837 31.5108C106.328 31.5014 107.793 31.8971 109.077 32.6559C110.373 33.3987 111.447 34.4753 112.188 35.774C112.939 37.0664 113.334 38.5351 113.334 40.0304C113.334 41.5258 112.939 42.9944 112.188 44.2869C111.448 45.5862 110.374 46.663 109.077 47.4049C107.793 48.1647 106.328 48.5615 104.837 48.5533C103.722 48.5556 102.617 48.3347 101.587 47.9037C100.558 47.4726 99.6245 46.84 98.842 46.0428C98.049 45.2569 97.4193 44.3211 96.9894 43.2897C96.5595 42.2582 96.3379 41.1516 96.3374 40.0337C96.328 38.5393 96.724 37.0703 97.4831 35.784C98.2233 34.4846 99.2976 33.4078 100.594 32.6659C101.88 31.9038 103.35 31.5079 104.844 31.5208L104.837 31.5108ZM119.236 46.784V48.343H114.24V36.6286H113.417V35.0696H114.24V31.7312H119.236V33.3202H115.905V35.0862H120.049V36.6453H115.919V46.8274L119.236 46.784ZM122.793 48.343H121.128V31.7178H122.793V35.2532L125.697 31.7178H127.763L124.935 35.0896L128.242 48.343H126.527L123.679 36.5785L122.803 37.6268V48.3697L122.793 48.343ZM132.525 33.3202V48.3864H130.86V33.3202H128.372V31.7612H135.003V33.3202H132.525Z" fill="#1E1E1E"/>
<path d="M27.7349 54.9405V51.6022H30.2463V54.9405H29.7267V52.0161H28.2512V54.9539L27.7349 54.9405ZM32.3979 56.0689H31.8816V51.5955H32.3446V52.2465C32.4192 52.0534 32.5447 51.8842 32.7077 51.7569C32.8706 51.6296 33.065 51.549 33.2701 51.5236C33.4751 51.4983 33.6832 51.5291 33.8721 51.6129C34.0611 51.6967 34.2238 51.8303 34.343 51.9994C34.5977 52.3657 34.7263 52.8052 34.7094 53.2513C34.733 53.7138 34.6017 54.1709 34.3364 54.55C34.2261 54.6984 34.0823 54.8185 33.9167 54.9004C33.751 54.9822 33.5684 55.0234 33.3838 55.0207C33.1779 55.0237 32.9753 54.969 32.7988 54.8628C32.6223 54.7567 32.4788 54.6032 32.3846 54.4198V56.0589L32.3979 56.0689ZM32.3979 52.7839V53.7254C32.4286 53.9684 32.5471 54.1916 32.731 54.353C32.8804 54.5066 33.0833 54.5963 33.2972 54.6034C33.4136 54.6012 33.5281 54.5731 33.6323 54.5211C33.7366 54.4692 33.828 54.3946 33.9 54.3029C34.1045 54.0013 34.1976 53.6377 34.1632 53.2747C34.1836 52.9329 34.1 52.5929 33.9233 52.2999C33.8554 52.1952 33.7619 52.1096 33.6518 52.0511C33.5416 51.9927 33.4184 51.9634 33.2939 51.966C33.1896 51.9673 33.0866 51.9895 32.9911 52.0314C32.8955 52.0732 32.8094 52.1339 32.7376 52.2097C32.5726 52.3681 32.4569 52.5711 32.4045 52.794L32.3979 52.7839ZM37.3007 55.0207C37.0939 55.0299 36.8879 54.9882 36.701 54.8992C36.514 54.8101 36.3517 54.6765 36.2282 54.5099C35.9637 54.1426 35.8289 53.6974 35.8452 53.2446C35.8208 52.7802 35.9745 52.324 36.2748 51.9694C36.4096 51.8166 36.576 51.6951 36.7623 51.6132C36.9487 51.5314 37.1506 51.4911 37.354 51.4953C37.5619 51.4877 37.7687 51.5291 37.9579 51.6161C38.147 51.703 38.3132 51.8332 38.4431 51.9961C38.7152 52.3551 38.8552 52.7974 38.8395 53.248C38.8595 53.7118 38.7063 54.1665 38.4098 54.5232C38.274 54.6842 38.1038 54.8125 37.9118 54.8986C37.7198 54.9847 37.5109 55.0264 37.3007 55.0207ZM37.3407 54.5934C37.47 54.5939 37.5977 54.5639 37.7134 54.506C37.8291 54.448 37.9296 54.3636 38.0068 54.2595C38.2053 53.9651 38.2991 53.6124 38.2732 53.258C38.3028 52.9013 38.2035 52.5459 37.9935 52.2565C37.9122 52.1586 37.8104 52.08 37.6952 52.0263C37.58 51.9726 37.4544 51.9452 37.3273 51.946C37.1996 51.9426 37.0728 51.9692 36.9571 52.0237C36.8415 52.0782 36.7401 52.1591 36.6612 52.2598C36.457 52.5517 36.3616 52.9061 36.3914 53.2613C36.3577 53.6284 36.4531 53.9957 36.6612 54.2996C36.741 54.3994 36.8425 54.4795 36.9579 54.5339C37.0734 54.5883 37.1998 54.6155 37.3273 54.6134L37.3407 54.5934ZM42.4366 53.9257L42.9162 54.0258C42.8294 54.3128 42.6487 54.5621 42.4033 54.7336C42.1407 54.9226 41.8239 55.021 41.5007 55.014C41.292 55.0214 41.0843 54.9817 40.8929 54.8979C40.7015 54.8142 40.5313 54.6884 40.3949 54.5299C40.1011 54.1773 39.9501 53.7269 39.9719 53.268C39.9503 52.7982 40.1074 52.3376 40.4116 51.9794C40.5481 51.8214 40.7176 51.6956 40.9082 51.6107C41.0987 51.5259 41.3056 51.4842 41.514 51.4887C41.7118 51.4807 41.909 51.517 42.091 51.5949C42.2731 51.6729 42.4355 51.7906 42.5665 51.9393C42.8601 52.3288 43.0043 52.811 42.9729 53.2981H40.5515C40.5515 53.8022 40.6547 54.146 40.8679 54.3229C41.0517 54.4872 41.2878 54.5807 41.534 54.5867C41.7364 54.5907 41.9345 54.5273 42.0972 54.4065C42.2599 54.2857 42.3781 54.1143 42.4333 53.919L42.4366 53.9257ZM42.4066 52.9242C42.4052 52.753 42.3737 52.5835 42.3134 52.4234C42.2549 52.2742 42.1542 52.1454 42.0236 52.0528C41.8809 51.9482 41.7074 51.8942 41.5307 51.8993C41.4065 51.8963 41.2831 51.9194 41.1683 51.9671C41.0536 52.0148 40.9501 52.0861 40.8645 52.1764C40.6783 52.3815 40.5719 52.6469 40.5648 52.9242H42.4066ZM45.9239 52.7673L47.0996 54.9372H46.5134L45.5442 53.1078L44.8614 53.9056V54.9372H44.3451V51.5988H44.8614V52.8641C44.8614 53.1044 44.8614 53.2847 44.8414 53.4082C44.9433 53.2589 45.0545 53.1162 45.1745 52.9809L46.4068 51.5988H46.973L45.9305 52.7739L45.9239 52.7673ZM48.5884 54.9372V52.0161H47.6658V51.6088H50.0406V52.0161H49.108V54.9539L48.5884 54.9372ZM51.6693 54.6201V54.9372H51.1497V51.5988H51.6693V53.3515C51.6693 53.5952 51.6693 53.8522 51.646 54.1193C51.7926 53.889 51.9358 53.682 52.079 53.4917L53.2414 51.9527V51.5921H53.761V54.9305H53.2414V53.2613C53.2414 52.9509 53.2414 52.6938 53.2647 52.4935C53.1353 52.7124 52.9894 52.9211 52.8284 53.1178L51.6693 54.6301V54.6201ZM55.9093 56.0656H55.3997V51.5921H55.866V52.2431C55.9406 52.05 56.0661 51.8808 56.2291 51.7535C56.3921 51.6262 56.5864 51.5456 56.7915 51.5203C56.9965 51.4949 57.2046 51.5258 57.3935 51.6096C57.5825 51.6934 57.7452 51.8269 57.8644 51.9961C58.1051 52.3777 58.2328 52.8199 58.2328 53.2714C58.2328 53.7228 58.1051 54.165 57.8644 54.5466C57.7546 54.6979 57.6102 54.8205 57.4432 54.9041C57.2763 54.9878 57.0918 55.03 56.9052 55.0274C56.6993 55.0303 56.4967 54.9757 56.3202 54.8695C56.1437 54.7634 56.0002 54.6099 55.906 54.4264V56.0656H55.9093ZM55.9093 52.7806V53.722C55.9379 53.9657 56.0568 54.1897 56.2424 54.3497C56.3906 54.503 56.5924 54.5928 56.8053 54.6C56.9217 54.5981 57.0363 54.5701 57.1406 54.5181C57.2449 54.4661 57.3363 54.3915 57.4081 54.2996C57.6142 53.9987 57.7074 53.6345 57.6713 53.2714C57.6911 52.9301 57.6087 52.5906 57.4348 52.2965C57.3664 52.1923 57.2728 52.107 57.1628 52.0487C57.0527 51.9903 56.9298 51.9607 56.8053 51.9627C56.701 51.964 56.5981 51.9862 56.5025 52.028C56.407 52.0699 56.3208 52.1306 56.249 52.2064C56.0828 52.3638 55.9669 52.5671 55.916 52.7906L55.9093 52.7806ZM60.8088 55.0207C60.6018 55.0319 60.3952 54.9921 60.2071 54.9048C60.0189 54.8175 59.855 54.6854 59.7296 54.5199C59.4651 54.1526 59.3303 53.7074 59.3466 53.2547C59.3232 52.7898 59.4781 52.3335 59.7796 51.9794C59.9136 51.8265 60.0793 51.7049 60.2651 51.623C60.451 51.5411 60.6524 51.501 60.8554 51.5053C61.0634 51.4978 61.2702 51.5391 61.4593 51.6261C61.6484 51.713 61.8146 51.8432 61.9445 52.0061C62.2166 52.3652 62.3567 52.8074 62.3409 53.258C62.3609 53.7219 62.2077 54.1765 61.9112 54.5333C61.7756 54.6944 61.6054 54.8229 61.4134 54.909C61.2213 54.9951 61.0124 55.0367 60.8021 55.0307L60.8088 55.0207ZM60.8487 54.5934C60.9782 54.5944 61.1061 54.5647 61.2218 54.5067C61.3376 54.4487 61.438 54.364 61.5149 54.2595C61.7148 53.9657 61.8098 53.6128 61.7847 53.258C61.8143 52.9013 61.715 52.5459 61.5049 52.2565C61.423 52.1593 61.3211 52.0812 61.206 52.0276C61.091 51.9739 60.9656 51.9461 60.8387 51.946C60.711 51.9429 60.5843 51.9696 60.4687 52.0241C60.3531 52.0785 60.2517 52.1593 60.1726 52.2598C59.9685 52.5517 59.873 52.9061 59.9028 53.2613C59.8691 53.6284 59.9645 53.9957 60.1726 54.2996C60.2524 54.3994 60.3539 54.4795 60.4694 54.5339C60.5848 54.5883 60.7112 54.6155 60.8387 54.6134L60.8487 54.5934ZM63.7664 54.9272V51.5888H65.3219C65.988 51.5888 66.3444 51.8592 66.3444 52.4C66.3476 52.5712 66.2931 52.7384 66.1897 52.8747C66.0864 53.011 65.9402 53.1084 65.7748 53.1512C65.9762 53.1836 66.1589 53.2888 66.2883 53.4468C66.4178 53.6048 66.4851 53.8048 66.4776 54.0091C66.483 54.131 66.4643 54.2527 66.4226 54.3673C66.3809 54.4819 66.3169 54.5871 66.2345 54.6768C66.1472 54.7635 66.0429 54.831 65.9283 54.8753C65.8136 54.9195 65.6911 54.9395 65.5683 54.9339L63.7664 54.9272ZM64.2827 52.9742H65.3219C65.3901 52.9829 65.4595 52.9755 65.5244 52.9526C65.5893 52.9297 65.648 52.892 65.6958 52.8424C65.7437 52.7929 65.7793 52.7328 65.8 52.667C65.8206 52.6013 65.8257 52.5316 65.8148 52.4635C65.8223 52.3976 65.8145 52.331 65.792 52.2687C65.7696 52.2063 65.7331 52.1501 65.6854 52.1042C65.6377 52.0583 65.58 52.0241 65.517 52.0042C65.454 51.9843 65.3872 51.9792 65.3219 51.9894H64.2827V52.9742ZM64.2827 54.5199H65.3219C65.3999 54.5324 65.4799 54.5266 65.5553 54.5028C65.6307 54.479 65.6996 54.438 65.7564 54.3829C65.8133 54.3279 65.8566 54.2603 65.8829 54.1856C65.9092 54.1109 65.9179 54.031 65.9081 53.9524C65.9193 53.8728 65.9118 53.7916 65.8863 53.7154C65.8607 53.6391 65.8178 53.5699 65.7609 53.5132C65.704 53.4565 65.6347 53.4139 65.5585 53.3887C65.4823 53.3635 65.4013 53.3565 65.3219 53.3682H64.2827V54.5199ZM70.5144 54.9272H69.9982C69.9815 54.8204 69.9582 54.6201 69.9416 54.3263C69.8382 54.5463 69.671 54.73 69.4618 54.8533C69.2527 54.9766 69.0113 55.0338 68.7692 55.0173C68.6131 55.0278 68.4566 55.0065 68.3089 54.9549C68.1613 54.9033 68.0255 54.8223 67.9098 54.7169C67.8125 54.6262 67.7352 54.5161 67.683 54.3936C67.6307 54.2711 67.6048 54.139 67.6067 54.0058C67.6048 53.8421 67.643 53.6804 67.7179 53.5349C67.7928 53.3894 67.9022 53.2645 68.0364 53.1712C68.4779 52.9116 68.9885 52.795 69.4986 52.8374C69.5885 52.8374 69.7384 52.8374 69.9416 52.8374C69.951 52.6438 69.9296 52.45 69.8783 52.2632C69.831 52.1388 69.7381 52.0372 69.6185 51.9794C69.4565 51.9021 69.2782 51.8654 69.0989 51.8726C68.5726 51.8726 68.2662 52.0762 68.1796 52.4768L67.7 52.3934C67.8166 51.7791 68.3062 51.472 69.1755 51.472C69.3506 51.4553 69.5274 51.4735 69.6954 51.5257C69.8635 51.5778 70.0196 51.6628 70.1547 51.7758C70.3757 52.083 70.4775 52.4604 70.4412 52.8374V54.2595C70.4387 54.4776 70.4634 54.6952 70.5144 54.9072V54.9272ZM69.9416 53.258C69.7284 53.258 69.5685 53.238 69.4586 53.238C69.1276 53.2193 68.7976 53.2896 68.5027 53.4416C68.3983 53.499 68.312 53.5844 68.2531 53.6881C68.1943 53.7919 68.1654 53.9099 68.1696 54.0292C68.1682 54.1079 68.1839 54.1859 68.2155 54.258C68.2471 54.33 68.294 54.3943 68.3528 54.4465C68.5 54.5713 68.69 54.6336 68.8824 54.6201C69.0277 54.6241 69.1721 54.5963 69.3055 54.5386C69.439 54.481 69.5583 54.3948 69.6551 54.2862C69.8517 54.0662 69.9586 53.7803 69.9549 53.485C69.9549 53.4216 69.9549 53.3481 69.9549 53.2647L69.9416 53.258ZM72.0699 54.9272V51.5888H72.5895V52.9742H74.1815V51.5888H74.6978V54.9272H74.1815V53.3748H72.5895V54.9272H72.0699ZM76.8228 54.6101V54.9272H76.3032V51.5888H76.8228V53.3515C76.8228 53.5952 76.8228 53.8522 76.7995 54.1193C76.9427 53.889 77.0892 53.682 77.2325 53.4917L78.3949 51.9527V51.5921H78.9145V54.9305H78.3816V53.2613C78.3816 52.9509 78.3816 52.6938 78.4049 52.4935C78.2754 52.7124 78.1295 52.9211 77.9685 53.1178L76.8095 54.6301L76.8228 54.6101ZM82.7448 53.9424L83.2277 54.0425C83.1388 54.3284 82.9586 54.5771 82.7148 54.7503C82.4522 54.9393 82.1354 55.0377 81.8122 55.0307C81.6034 55.0383 81.3957 54.9988 81.2042 54.915C81.0128 54.8312 80.8427 54.7053 80.7064 54.5466C80.4126 54.194 80.2616 53.7436 80.2834 53.2847C80.2625 52.8155 80.4182 52.3556 80.7197 51.9961C80.8569 51.838 81.027 51.7122 81.2181 51.6274C81.4092 51.5426 81.6166 51.5009 81.8255 51.5053C82.0233 51.4974 82.2204 51.5337 82.4025 51.6116C82.5846 51.6896 82.747 51.8072 82.878 51.956C83.1699 52.3463 83.314 52.8279 83.2843 53.3148H80.8596C80.8371 53.4983 80.8537 53.6845 80.9082 53.8612C80.9627 54.0378 81.054 54.2009 81.176 54.3396C81.3606 54.5027 81.5962 54.5959 81.8422 54.6034C82.044 54.6066 82.2413 54.5429 82.4034 54.4222C82.5654 54.3014 82.6831 54.1304 82.7381 53.9357L82.7448 53.9424ZM82.7181 52.9409C82.7151 52.7699 82.6835 52.6006 82.6249 52.4401C82.5653 52.2915 82.4648 52.163 82.3351 52.0695C82.1911 51.9649 82.0166 51.9109 81.8388 51.916C81.7146 51.9123 81.5909 51.9351 81.4761 51.9829C81.3613 52.0307 81.2579 52.1023 81.1727 52.1931C80.9855 52.3978 80.8779 52.6632 80.8696 52.9409H82.7181ZM90.6452 53.7821L91.1148 53.8656C91.0685 54.1948 90.9137 54.4992 90.6752 54.7302C90.5385 54.845 90.3802 54.9311 90.2098 54.9834C90.0393 55.0357 89.8601 55.0532 89.6827 55.0349C89.5054 55.0165 89.3335 54.9626 89.1773 54.8765C89.0211 54.7903 88.8837 54.6736 88.7733 54.5333C88.5256 54.1665 88.3997 53.7307 88.4136 53.288C88.3969 52.8358 88.5304 52.3908 88.7933 52.0228C88.9125 51.8603 89.0695 51.7295 89.2506 51.6416C89.4317 51.5538 89.6314 51.5116 89.8325 51.5187C89.9934 51.5123 90.154 51.5387 90.3045 51.596C90.455 51.6534 90.5924 51.7406 90.7085 51.8525C90.9308 52.0831 91.0732 52.3792 91.1148 52.6971L90.6452 52.7839C90.5586 52.2331 90.2921 51.9594 89.8458 51.9594C89.7122 51.9533 89.5795 51.984 89.4621 52.0482C89.3447 52.1123 89.247 52.2074 89.1797 52.3232C89.0125 52.6102 88.9316 52.9394 88.9465 53.2714C88.9259 53.6204 89.0057 53.968 89.1764 54.2729C89.2426 54.3846 89.3375 54.4766 89.451 54.5394C89.5646 54.6022 89.6928 54.6335 89.8225 54.6301C90.2522 54.6301 90.5253 54.3497 90.6385 53.7955L90.6452 53.7821ZM93.6428 55.044C93.436 55.0533 93.2301 55.0116 93.0431 54.9225C92.8561 54.8335 92.6938 54.6998 92.5703 54.5333C92.3058 54.166 92.171 53.7207 92.1873 53.268C92.163 52.8036 92.3167 52.3473 92.617 51.9927C92.7518 51.84 92.9181 51.7185 93.1045 51.6366C93.2908 51.5547 93.4927 51.5145 93.6961 51.5187C93.9041 51.5111 94.1109 51.5525 94.3 51.6394C94.4892 51.7264 94.6553 51.8565 94.7853 52.0195C95.0574 52.3785 95.1974 52.8207 95.1816 53.2714C95.2017 53.7352 95.0485 54.1899 94.7519 54.5466C94.6132 54.7042 94.4409 54.8287 94.2478 54.9107C94.0547 54.9927 93.8457 55.0303 93.6362 55.0207L93.6428 55.044ZM93.6828 54.6167C93.8122 54.6172 93.9398 54.5873 94.0555 54.5293C94.1712 54.4713 94.2717 54.3869 94.3489 54.2829C94.5474 53.9885 94.6413 53.6357 94.6154 53.2814C94.645 52.9247 94.5457 52.5693 94.3356 52.2798C94.2544 52.182 94.1525 52.1034 94.0373 52.0497C93.9221 51.996 93.7965 51.9686 93.6695 51.9694C93.5417 51.966 93.4149 51.9926 93.2993 52.0471C93.1836 52.1016 93.0823 52.1824 93.0033 52.2832C92.7992 52.5751 92.7037 52.9295 92.7335 53.2847C92.6998 53.6517 92.7953 54.019 93.0033 54.3229C93.0831 54.4227 93.1846 54.5029 93.3001 54.5573C93.4156 54.6117 93.5419 54.6389 93.6695 54.6368L93.6828 54.6167ZM96.5505 54.9506V51.6122H98.4857V52.0161H97.0701V54.9539L96.5505 54.9506ZM98.9786 54.9506L100.078 51.6122H100.697L101.776 54.9506H101.237L100.401 52.2398H100.298L99.4549 54.9506H98.9786ZM105.617 54.9506H105.094C105.074 54.8437 105.054 54.6434 105.034 54.3497C104.931 54.5694 104.764 54.753 104.556 54.8763C104.347 54.9996 104.106 55.0569 103.865 55.0407C103.708 55.0514 103.551 55.0303 103.403 54.9787C103.255 54.927 103.118 54.8459 103.002 54.7402C102.903 54.6484 102.825 54.5367 102.772 54.4124C102.719 54.2882 102.693 54.1542 102.696 54.0192C102.694 53.8554 102.732 53.6937 102.807 53.5482C102.882 53.4027 102.991 53.2779 103.125 53.1846C103.566 52.9255 104.075 52.8089 104.584 52.8507C104.677 52.8507 104.824 52.8507 105.027 52.8507C105.036 52.6574 105.015 52.4639 104.967 52.2765C104.919 52.1528 104.826 52.0517 104.707 51.9927C104.544 51.9155 104.365 51.8789 104.184 51.8859C103.658 51.8859 103.352 52.0896 103.265 52.4902L102.789 52.4067C102.907 51.7924 103.397 51.4853 104.261 51.4853C104.436 51.4675 104.613 51.4852 104.782 51.5374C104.95 51.5896 105.106 51.6752 105.24 51.7891C105.462 52.0959 105.565 52.4733 105.53 52.8507V54.2729C105.528 54.491 105.552 54.7085 105.603 54.9205L105.617 54.9506ZM105.04 53.2814C104.827 53.2814 104.667 53.2613 104.558 53.2613C104.228 53.2426 103.899 53.313 103.605 53.465C103.501 53.5227 103.415 53.6081 103.356 53.7118C103.297 53.8154 103.268 53.9334 103.272 54.0525C103.271 54.1315 103.287 54.2096 103.32 54.2816C103.352 54.3537 103.399 54.4179 103.458 54.4698C103.605 54.5957 103.795 54.6581 103.988 54.6434C104.133 54.6483 104.277 54.6209 104.41 54.5632C104.543 54.5055 104.662 54.4189 104.757 54.3096C104.956 54.0908 105.065 53.8043 105.06 53.5084C105.06 53.4461 105.06 53.3726 105.06 53.288L105.04 53.2814ZM109.164 53.7821L109.634 53.8656C109.589 54.1953 109.434 54.5001 109.194 54.7302C109.057 54.8445 108.899 54.9301 108.729 54.9822C108.559 55.0342 108.38 55.0515 108.203 55.0332C108.026 55.0148 107.855 54.9611 107.699 54.8753C107.543 54.7894 107.406 54.6731 107.295 54.5333C107.045 54.1676 106.918 53.7313 106.932 53.288C106.915 52.8352 107.05 52.3896 107.315 52.0228C107.434 51.8599 107.591 51.7287 107.772 51.6408C107.953 51.5529 108.153 51.511 108.355 51.5187C108.515 51.5122 108.675 51.5385 108.825 51.5959C108.975 51.6532 109.112 51.7406 109.227 51.8525C109.452 52.0813 109.595 52.3783 109.634 52.6971L109.164 52.7839C109.077 52.2331 108.811 51.9594 108.365 51.9594C108.231 51.9533 108.098 51.984 107.981 52.0482C107.863 52.1123 107.766 52.2074 107.698 52.3232C107.534 52.6112 107.454 52.9399 107.469 53.2714C107.448 53.6204 107.528 53.968 107.698 54.2729C107.764 54.3851 107.859 54.4775 107.973 54.5404C108.086 54.6032 108.215 54.6342 108.345 54.6301C108.774 54.6301 109.044 54.3497 109.157 53.7955L109.164 53.7821ZM112.162 55.044C111.955 55.053 111.749 55.0112 111.562 54.9221C111.375 54.8331 111.213 54.6996 111.089 54.5333C110.825 54.166 110.69 53.7207 110.706 53.268C110.683 52.8031 110.837 52.3468 111.139 51.9927C111.273 51.8399 111.439 51.7183 111.625 51.6364C111.81 51.5545 112.012 51.5143 112.215 51.5187C112.423 51.5111 112.63 51.5525 112.819 51.6394C113.008 51.7264 113.174 51.8565 113.304 52.0195C113.576 52.3785 113.716 52.8207 113.7 53.2714C113.72 53.7352 113.567 54.1899 113.271 54.5466C113.135 54.7076 112.965 54.8359 112.773 54.922C112.581 55.0081 112.372 55.0498 112.162 55.044ZM112.201 54.6167C112.331 54.6178 112.459 54.5881 112.575 54.5301C112.69 54.472 112.791 54.3873 112.868 54.2829C113.068 53.989 113.163 53.6361 113.137 53.2814C113.167 52.9247 113.068 52.5693 112.858 52.2798C112.776 52.1827 112.674 52.1046 112.559 52.0509C112.444 51.9973 112.318 51.9695 112.192 51.9694C112.064 51.9663 111.937 51.993 111.821 52.0475C111.706 52.1019 111.604 52.1826 111.525 52.2832C111.321 52.5751 111.226 52.9295 111.256 53.2847C111.222 53.6517 111.317 54.019 111.525 54.3229C111.605 54.4227 111.707 54.5029 111.822 54.5573C111.938 54.6117 112.064 54.6389 112.192 54.6368L112.201 54.6167ZM115.119 54.9506V51.6122H116.675C117.357 51.6122 117.697 51.8826 117.697 52.4234C117.7 52.5946 117.646 52.7618 117.542 52.8981C117.439 53.0344 117.293 53.1318 117.128 53.1745C117.324 53.2096 117.502 53.314 117.628 53.4689C117.755 53.6239 117.822 53.819 117.817 54.0192C117.822 54.141 117.804 54.2628 117.762 54.3773C117.72 54.4919 117.656 54.5971 117.574 54.6868C117.487 54.7735 117.382 54.841 117.268 54.8853C117.153 54.9295 117.03 54.9495 116.908 54.9439L115.119 54.9506ZM115.635 52.9976H116.675C116.743 53.0063 116.812 52.9988 116.877 52.976C116.942 52.9531 117.001 52.9154 117.049 52.8658C117.096 52.8162 117.132 52.7562 117.153 52.6904C117.173 52.6246 117.178 52.5549 117.168 52.4868C117.175 52.421 117.167 52.3543 117.145 52.292C117.122 52.2297 117.086 52.1734 117.038 52.1276C116.99 52.0817 116.933 52.0475 116.87 52.0276C116.807 52.0077 116.74 52.0026 116.675 52.0128H115.635V52.9976ZM115.635 54.5433H116.675C116.753 54.5558 116.833 54.5499 116.908 54.5262C116.983 54.5024 117.052 54.4614 117.109 54.4063C117.166 54.3512 117.209 54.2837 117.236 54.209C117.262 54.1342 117.271 54.0544 117.261 53.9758C117.272 53.8961 117.265 53.815 117.239 53.7387C117.213 53.6625 117.171 53.5933 117.114 53.5366C117.057 53.4799 116.987 53.4372 116.911 53.4121C116.835 53.3869 116.754 53.3799 116.675 53.3915H115.635V54.5433ZM121.867 54.9506H121.348C121.318 54.7514 121.299 54.5508 121.291 54.3497C121.188 54.5697 121.02 54.7534 120.811 54.8767C120.602 55 120.361 55.0571 120.119 55.0407C119.963 55.0511 119.806 55.0299 119.658 54.9783C119.511 54.9266 119.375 54.8457 119.259 54.7402C119.162 54.6496 119.085 54.5395 119.032 54.417C118.98 54.2945 118.954 54.1624 118.956 54.0292C118.954 53.8655 118.992 53.7038 119.067 53.5583C119.142 53.4128 119.252 53.2879 119.386 53.1946C119.826 52.9355 120.336 52.8189 120.845 52.8607C120.938 52.8607 121.088 52.8607 121.291 52.8607C121.3 52.6672 121.279 52.4733 121.228 52.2865C121.18 52.1621 121.087 52.0606 120.968 52.0028C120.806 51.9254 120.628 51.8888 120.448 51.8959C119.922 51.8959 119.616 52.0996 119.529 52.5002L119.049 52.4167C119.165 51.8025 119.656 51.4953 120.522 51.4953C120.697 51.4771 120.874 51.4947 121.042 51.5469C121.21 51.5991 121.366 51.6849 121.501 51.7991C121.724 52.1052 121.828 52.4832 121.791 52.8607V54.2829C121.788 54.501 121.813 54.7185 121.864 54.9305L121.867 54.9506ZM121.294 53.2814C121.081 53.2814 120.921 53.2613 120.811 53.2613C120.48 53.2427 120.15 53.313 119.855 53.465C119.751 53.5224 119.665 53.6077 119.606 53.7115C119.547 53.8152 119.518 53.9333 119.522 54.0525C119.521 54.1312 119.537 54.2093 119.568 54.2813C119.6 54.3534 119.647 54.4177 119.706 54.4698C119.853 54.595 120.043 54.6574 120.235 54.6434C120.38 54.6475 120.525 54.6197 120.658 54.562C120.792 54.5044 120.911 54.4182 121.008 54.3096C121.204 54.0896 121.311 53.8037 121.308 53.5084C121.308 53.445 121.308 53.3715 121.308 53.288L121.294 53.2814ZM123.423 54.9506V51.6122H123.939V52.9976H125.534V51.6122H126.051V54.9506H125.534V53.3982H123.939V54.9506H123.423ZM128.176 54.6334V54.9506H127.643V51.6122H128.162V53.3515C128.162 53.5952 128.162 53.8522 128.139 54.1193C128.273 53.903 128.417 53.6935 128.572 53.4917L129.734 51.9527V51.5921H130.254V54.9305H129.734V53.2613C129.734 52.9509 129.734 52.6938 129.758 52.4935C129.628 52.7124 129.482 52.9211 129.321 53.1178L128.162 54.6301L128.176 54.6334ZM134.098 53.9657L134.58 54.0659C134.492 54.3518 134.311 54.6005 134.068 54.7736C133.805 54.9626 133.488 55.0611 133.165 55.0541C132.956 55.0615 132.748 55.0218 132.556 54.9381C132.364 54.8543 132.193 54.7285 132.056 54.57C131.778 54.2031 131.628 53.7552 131.628 53.2947C131.628 52.8342 131.778 52.3863 132.056 52.0195C132.193 51.8614 132.363 51.7355 132.554 51.6507C132.745 51.5659 132.953 51.5243 133.162 51.5287C133.359 51.5207 133.557 51.557 133.739 51.635C133.921 51.713 134.083 51.8306 134.214 51.9794C134.506 52.3697 134.65 52.8512 134.62 53.3381H132.196C132.173 53.5217 132.19 53.7079 132.244 53.8846C132.299 54.0612 132.39 54.2243 132.512 54.363C132.697 54.526 132.932 54.6193 133.178 54.6267C133.38 54.63 133.577 54.5663 133.739 54.4455C133.901 54.3248 134.019 54.1538 134.074 53.9591L134.098 53.9657ZM134.068 52.9642C134.067 52.7933 134.037 52.6238 133.978 52.4635C133.917 52.3155 133.817 52.1873 133.688 52.0929C133.544 51.9882 133.369 51.9342 133.192 51.9393C133.067 51.9357 132.944 51.9585 132.829 52.0063C132.714 52.054 132.611 52.1257 132.525 52.2164C132.338 52.4212 132.231 52.6866 132.222 52.9642H134.068Z" fill="#1E1E1E"/>
<path fill-rule="evenodd" clip-rule="evenodd" d="M86.6014 50.5789H87.5607L85.4257 55.7434H84.4698L86.6014 50.5789Z" fill="url(#paint1_linear)"/>
<path fill-rule="evenodd" clip-rule="evenodd" d="M11.9541 34.5766L12.4537 34.6333V35.8385L11.9541 35.7617V34.5766ZM15.448 17.6843L16.0808 17.4106V18.7726L15.448 19.0197V17.6843ZM15.448 19.6072L16.0808 19.3736V20.7323L15.448 20.9426V19.6072ZM15.448 21.5268L16.0808 21.3299V22.6953L15.448 22.8655V21.5302V21.5268ZM15.448 23.4464L16.0975 23.3062V24.6415L15.4646 24.7751V23.4397L15.448 23.4464ZM15.448 25.366L16.0808 25.2458V26.6112L15.448 26.7047V25.3693V25.366ZM15.448 27.2889L16.0808 27.2054V28.5708L15.448 28.6276V27.2922V27.2889ZM15.448 29.2085L16.0808 29.1651V30.5305L15.448 30.5472V29.2118V29.2085ZM15.448 31.128H16.0975V32.4901L15.4646 32.4701V31.1347L15.448 31.128ZM15.448 33.0476L16.0808 33.0843V34.4464L15.448 34.3863V33.0509V33.0476ZM15.448 34.9739L16.0808 35.044V36.4027L15.448 36.3059V34.9705V34.9739ZM14.4954 18.095L15.0916 17.8379V19.1733L14.4954 19.4036V18.1083V18.095ZM14.4954 19.9611L15.0916 19.7408V21.0761L14.4954 21.2731V19.9678V19.9611ZM14.4954 21.8206L15.0982 21.637V22.9723L14.502 23.1326V21.834L14.4954 21.8206ZM14.4954 23.6834L15.0916 23.5365V24.8719L14.4954 24.9954V23.6968V23.6834ZM14.4954 25.5462L15.0916 25.4327V26.7681L14.4954 26.8549V25.5563V25.5462ZM14.4954 27.4091L15.0916 27.3323V28.6676L14.4954 28.7211V27.4191V27.4091ZM14.4954 29.2752L15.0916 29.2352V30.5705H14.4954V29.2752ZM14.4954 31.1381H15.0916V32.4734L14.4954 32.4534V31.1581V31.1381ZM14.4954 32.9975L15.0916 33.0309V34.3663L14.4954 34.3095V32.9875V32.9975ZM14.4954 34.8637L15.0916 34.9305V36.2658L14.4954 36.1723V34.8804V34.8637ZM13.5994 18.4789L14.159 18.2385V19.5204L13.5994 19.7408V18.4789ZM13.5994 20.2916L14.159 20.0846V21.3666L13.5994 21.5502V20.3016V20.2916ZM13.5994 22.101L14.159 21.9241V23.2094L13.5994 23.3596V22.101ZM13.5994 23.9071L14.159 23.7669V25.0488L13.5994 25.1657V23.9071ZM13.5994 25.7165L14.159 25.6097V26.895L13.5994 26.9784V25.7165ZM13.5994 27.5259L14.159 27.4525V28.7377L13.5994 28.7878V27.5259ZM13.5994 29.3353L14.159 29.2986V30.5805H13.5994V29.322V29.3353ZM13.5994 31.1447H14.159V32.43L13.5994 32.41V31.1514V31.1447ZM13.5994 32.9541L14.159 32.9808V34.2628L13.5994 34.2094V32.9541ZM13.5994 34.7635L14.159 34.827V36.1056L13.5994 36.0188V34.7635ZM12.7668 18.8461L13.2963 18.6157V19.861L12.7668 20.0679V18.8461ZM12.7668 20.6054L13.2963 20.4085V21.6537L12.7668 21.8273V20.6054ZM12.7668 22.3614L13.2963 22.1978V23.4431L12.7668 23.5866V22.3614ZM12.7668 24.1174L13.2963 23.9872V25.2324L12.7668 25.3426V24.1174ZM12.7668 25.8767L13.2963 25.7766V27.0218L12.7668 27.1019V25.8767ZM12.7668 27.6327L13.2963 27.566V28.8145L12.7668 28.8579V27.6461V27.6327ZM12.7668 29.3921L13.2963 29.3553V30.6039H12.7668V29.3787V29.3921ZM12.7668 31.1481H13.2963V32.3966L12.7668 32.3766V31.1514V31.1481ZM12.7668 32.9074L13.2963 32.9374V34.1793L12.7668 34.1292V32.9074ZM12.7668 34.6667L13.2963 34.7268V35.9687L12.7668 35.8852V34.6567V34.6667ZM11.9674 19.1899L12.467 18.973V20.1848L11.9674 20.3784V19.1899ZM11.9674 20.9025L12.467 20.7156V21.9241L11.9674 22.091V20.9025ZM11.9674 22.6085L12.467 22.4549V23.6667L11.9674 23.8003V22.6085ZM11.9674 24.3177L12.467 24.1942V25.4027L11.9674 25.5095V24.3077V24.3177ZM11.9674 26.027L12.467 25.9335V27.1453L11.9674 27.2188V26.027ZM11.9674 27.7362L12.467 27.6728V28.8846L11.9674 28.928V27.7362ZM11.9674 29.4488L12.467 29.4121V30.6239H11.9674V29.4488ZM11.9674 31.1547H12.467V32.3666H11.9674V31.1748V31.1547ZM11.9674 32.8673L12.467 32.894V34.1025L11.9674 34.0558V32.8673Z" fill="url(#paint2_radial)"/>
</g>
<defs>
<radialGradient id="paint0_radial" cx="0" cy="0" r="1" gradientUnits="userSpaceOnUse" gradientTransform="translate(61.1283 -3.95958) scale(67.8131 67.9696)">
<stop stop-color="#E30613"/>
<stop offset="0.22" stop-color="#E30613"/>
<stop offset="0.8" stop-color="#8D2725"/>
<stop offset="1" stop-color="#BB1D1D"/>
</radialGradient>
<linearGradient id="paint1_linear" x1="86.0152" y1="58.9182" x2="86.0152" y2="47.4074" gradientUnits="userSpaceOnUse">
<stop stop-color="#BB1D1D"/>
<stop offset="1" stop-color="#E30613"/>
</linearGradient>
<radialGradient id="paint2_radial" cx="0" cy="0" r="1" gradientUnits="userSpaceOnUse" gradientTransform="translate(1110.37 2010.25) scale(179.078 820.839)">
<stop stop-color="#E30613"/>
<stop offset="0.22" stop-color="#E30613"/>
<stop offset="0.8" stop-color="#8D2725"/>
<stop offset="1" stop-color="#BB1D1D"/>
</radialGradient>
<clipPath id="clip0">
<rect width="135" height="66" fill="white"/>
</clipPath>
</defs>
</svg>
