<svg width="245" height="120" viewBox="0 0 245 120" fill="none" xmlns="http://www.w3.org/2000/svg">
<g clip-path="url(#clip0)">
<path fill-rule="evenodd" clip-rule="evenodd" d="M59.8538 0.000421132C72.683 0.00253209 85.1722 4.14266 95.4812 11.8107C105.79 19.4788 113.374 30.2693 117.114 42.5922H113.433V50.5497H144.061V52.5103H113.433H69.912V55.9215H63.668L64.5565 54.92H62.3805V52.6924H62.6766L64.5565 50.5376H62.3805V48.2918H62.6766L64.5565 46.1431H62.3805V43.8912H62.6766L64.5565 41.7425H62.3805V39.4906H62.6766L64.5565 37.3479H62.3805V35.0899H62.6766L64.5565 32.9352H50.3698V26.4587L49.2637 26.1673L48.9252 27.4602L44.4703 24.6863V18.3434L43.3641 17.2265V5.6939L41.7683 5.2508V16.8805L40.6985 16.6074L39.9187 17.9488V21.4268L34.2912 18.1613L32.2965 20.1522V26.7318L29.8182 26.4344L19.905 31.9944V33.876L18.3334 35.4966V36.4739L20.1891 36.9594V63.0596L18.7928 64.4496V66.0459H0.290259C0.0929304 64.0633 -0.00390566 62.0718 0.000120541 60.0793C0.000120541 44.1422 6.30484 28.8578 17.5273 17.5885C28.7498 6.31928 43.9708 -0.0117187 59.8417 -0.0117188L59.8538 0.000421132ZM76.2891 117.912C75.3099 118.192 74.3307 118.453 73.3393 118.683L60.6033 111.399L58.0284 112.771L24.0697 90.7379L32.2904 90.4587V87.8972L11.0376 75.005L18.3697 74.6104L38.2141 84.3221V95.4966L76.2952 117.955L76.2891 117.912ZM38.2081 78.7318V72.225L31.9942 70.5255V75.8669L38.2081 78.7318ZM54.8005 120.006L3.34884 79.9458C3.72965 81.0626 4.14672 82.1613 4.60007 83.2538L13.4373 90.0277L11.6239 91.2902L6.50411 87.3752C11.1329 96.4861 17.9975 104.262 26.4499 109.969C34.9023 115.677 44.6637 119.127 54.8126 119.994L54.8005 120.006ZM1.20904 72.2129C1.02166 71.3327 0.870548 70.4708 0.731522 69.5664L19.5967 69.4329L19.5242 71.0232L1.20904 72.2371V72.2129ZM60.2044 35.0899H50.3698V37.3418H60.2165V35.0899H60.2044ZM60.2044 39.4845H50.3698V41.7667H60.2165V39.5148L60.2044 39.4845ZM60.2044 43.8851H50.3698V46.137H60.2165V43.8851H60.2044ZM60.2044 48.2857H50.3698V50.5315H60.2165V48.2857H60.2044ZM60.2044 52.6863H50.3698V54.9321H60.2165V52.6924L60.2044 52.6863ZM30.6644 29.8456V66.744H32.3206V29.8456H30.6644ZM42.3245 20.6256V55.9215H43.213V21.1294L42.3245 20.6074V20.6256ZM35.9534 22.3434V65.7607H38.9153V24.0975L35.9534 22.3373V22.3434ZM21.7788 68.401V74.6711L28.3191 77.876V70.1795L21.7788 68.401Z" fill="url(#paint0_radial)"/>
<path fill-rule="evenodd" clip-rule="evenodd" d="M174.931 57.7031C175.471 57.7019 175.999 57.8616 176.448 58.162C176.897 58.4623 177.247 58.8898 177.454 59.3902C177.662 59.8907 177.716 60.4416 177.611 60.9732C177.506 61.5048 177.246 61.9931 176.865 62.3763C176.483 62.7595 175.997 63.0204 175.467 63.1258C174.938 63.2312 174.389 63.1765 173.891 62.9686C173.393 62.7606 172.967 62.4088 172.668 61.9577C172.369 61.5066 172.21 60.9765 172.211 60.4345C172.213 59.7106 172.5 59.0168 173.009 58.5049C173.519 57.993 174.21 57.7047 174.931 57.7031ZM174.931 58.1037C174.47 58.1037 174.02 58.241 173.637 58.498C173.255 58.7551 172.956 59.1204 172.78 59.5477C172.604 59.9751 172.559 60.4453 172.649 60.8988C172.739 61.3522 172.962 61.7686 173.288 62.0952C173.614 62.4218 174.029 62.6438 174.481 62.7333C174.933 62.8228 175.401 62.7757 175.826 62.5979C176.251 62.4201 176.614 62.1196 176.869 61.7345C177.124 61.3494 177.259 60.897 177.258 60.4345C177.257 59.8158 177.011 59.223 176.574 58.786C176.138 58.3491 175.547 58.1037 174.931 58.1037ZM173.849 58.9414V61.9338C173.849 61.9451 173.853 61.9559 173.861 61.9638C173.869 61.9718 173.88 61.9763 173.891 61.9763H174.429C174.435 61.9774 174.441 61.977 174.447 61.9753C174.452 61.9735 174.457 61.9704 174.462 61.9662C174.466 61.962 174.469 61.9569 174.471 61.9513C174.472 61.9456 174.473 61.9396 174.472 61.9338V60.8837C174.472 60.8534 174.472 60.8352 174.514 60.8352H175.034C175.097 60.8478 175.155 60.8806 175.198 60.9287C175.242 60.9768 175.269 61.0376 175.276 61.1022L175.541 61.8549C175.551 61.8815 175.566 61.9061 175.584 61.9277C175.584 61.9581 175.62 61.9763 175.638 61.9763H176.243V61.9399C176.225 61.9235 176.213 61.9024 176.206 61.8792L175.971 61.1569C175.954 61.0876 175.93 61.0205 175.898 60.9565C175.863 60.875 175.817 60.7993 175.759 60.732C175.824 60.699 175.883 60.656 175.934 60.6045L176.061 60.4467C176.13 60.2712 176.159 60.0825 176.146 59.8943V59.7972C176.158 59.5769 176.087 59.36 175.946 59.1902C175.882 59.12 175.804 59.0642 175.717 59.0264C175.642 58.9958 175.562 58.9793 175.481 58.9778H173.891C173.88 58.9778 173.869 58.9823 173.861 58.9902C173.853 58.9982 173.849 59.009 173.849 59.0203V58.9414ZM175.348 59.4573H174.514C174.484 59.4573 174.472 59.4573 174.472 59.4998V60.1978C174.472 60.1978 174.472 60.2403 174.52 60.2403H175.288C175.338 60.2377 175.386 60.216 175.421 60.1796C175.467 60.1422 175.501 60.0913 175.517 60.0339C175.527 59.9614 175.527 59.8879 175.517 59.8154C175.521 59.7791 175.521 59.7425 175.517 59.7062C175.514 59.6721 175.503 59.6391 175.487 59.6091C175.493 59.518 175.415 59.4634 175.348 59.4573Z" fill="white"/>
<path d="M66.5156 57.7182V87.9458H63.5235V62.4526L58.4219 69.0808L53.3504 62.4587V87.9518H50.3281V57.7242H53.3504L58.4219 64.1521L63.5235 57.7242L66.5156 57.7182ZM72.8383 79.0656H78.8829V63.527C78.9283 62.636 78.6514 61.7585 78.1031 61.0565C77.8395 60.7575 77.5128 60.5212 77.1469 60.3647C76.7809 60.2083 76.3849 60.1357 75.9875 60.1521C75.5646 60.1353 75.143 60.2094 74.751 60.3696C74.3591 60.5298 74.0057 60.7723 73.7147 61.0808C73.1239 61.7586 72.8165 62.6392 72.8564 63.5391V79.0656H72.8383ZM81.8568 81.9002V87.97H78.8647V81.9002H72.8201V87.97H69.7978V81.9002H68.3048V79.0656H69.7978V64.9837C69.7978 64.1825 69.7978 63.527 69.8703 62.9867C69.8782 62.532 69.9391 62.0798 70.0517 61.6392C70.1322 61.2445 70.2707 60.864 70.4627 60.5103C70.7913 59.8739 71.2316 59.3023 71.7623 58.8229C72.3014 58.3559 72.9143 57.9826 73.5757 57.7182C74.2847 57.4684 75.0307 57.3412 75.782 57.3418C76.7392 57.2992 77.6916 57.4992 78.5515 57.9235C79.4114 58.3479 80.1511 58.9828 80.7023 59.7697C81.138 60.3657 81.4467 61.0455 81.609 61.7667C81.7821 62.7685 81.855 63.7852 81.8266 64.8016V79.0778H83.3256V81.9124L81.8568 81.9002ZM88.1734 87.97H85.1511V57.7424H88.1734V64.1704L93.4443 57.7424H97.192L92.0782 63.8487L98.0745 87.9458H94.9676L89.7813 66.5072L88.1916 68.4131V87.9458L88.1734 87.97ZM102.354 61.1051V78.8957C104.175 78.2274 105.747 77.0132 106.857 75.4177C107.972 73.816 108.57 71.909 108.57 69.9549C108.57 68.0007 107.972 66.0937 106.857 64.4921C105.747 62.9211 104.184 61.7304 102.378 61.0808L102.354 61.1051ZM99.3318 87.9458V57.5482C100.352 57.5515 101.367 57.684 102.354 57.9427C104.093 58.4114 105.711 59.2497 107.099 60.401C108.483 61.567 109.604 63.0153 110.387 64.6499C111.182 66.3152 111.596 68.1384 111.596 69.9852C111.629 72.7499 110.713 75.4417 109.003 77.6089C107.343 79.7946 105.002 81.3606 102.354 82.0581V87.9458H99.3318ZM128.201 60.3524C126.017 60.3373 123.87 60.9094 121.981 62.0095C120.112 63.1258 118.555 64.6979 117.453 66.5801C116.36 68.4775 115.785 70.6308 115.785 72.8228C115.785 75.0149 116.36 77.1682 117.453 79.0656C118.537 80.9604 120.098 82.5348 121.981 83.6301C123.87 84.7313 126.016 85.3112 128.201 85.3112C130.385 85.3112 132.531 84.7313 134.421 83.6301C136.302 82.5346 137.861 80.9601 138.942 79.0656C140.035 77.1682 140.611 75.0149 140.611 72.8228C140.611 70.6308 140.035 68.4775 138.942 66.5801C137.841 64.6996 136.286 63.1278 134.421 62.0095C132.532 60.9103 130.384 60.3381 128.201 60.3524ZM128.201 57.3175C130.904 57.3006 133.561 58.0202 135.89 59.3995C138.241 60.7516 140.192 62.7084 141.541 65.0687C142.899 67.4198 143.615 70.0896 143.615 72.8077C143.615 75.5257 142.899 78.1955 141.541 80.5467C140.194 82.9082 138.243 84.8654 135.89 86.2159C133.562 87.597 130.905 88.3186 128.201 88.3039C126.181 88.3042 124.181 87.9062 122.313 87.1324C119.488 85.9582 117.072 83.9698 115.372 81.4181C113.671 78.8665 112.761 75.866 112.757 72.7955C112.743 70.0787 113.461 67.4087 114.836 65.0687C116.181 62.7074 118.13 60.7501 120.482 59.3995C122.819 58.0146 125.487 57.2948 128.201 57.3175ZM157.62 60.6013V87.9154H154.598V60.6013H148.734V87.9154H145.712V60.6013H144.213V57.791H159.173V60.6256L157.62 60.6013ZM164.414 61.0808V78.8714C166.235 78.2031 167.807 76.9889 168.917 75.3934C170.035 73.8057 170.627 71.9052 170.61 69.9609C170.635 68.0024 170.033 66.0875 168.893 64.4981C167.785 62.9258 166.221 61.7347 164.414 61.0869V61.0808ZM161.392 87.9215V57.5482C162.412 57.5515 163.427 57.684 164.414 57.9427C166.153 58.4114 167.771 59.2497 169.159 60.401C170.543 61.567 171.664 63.0153 172.447 64.6499C173.242 66.3152 173.656 68.1384 173.656 69.9852C173.692 72.7485 172.781 75.4401 171.075 77.6089C169.415 79.7946 167.074 81.3606 164.426 82.0581V87.9458L161.392 87.9215ZM190.261 60.3282C188.077 60.3139 185.93 60.886 184.041 61.9852C182.174 63.1016 180.619 64.6739 179.52 66.5558C178.423 68.452 177.845 70.6058 177.845 72.7986C177.845 74.9914 178.423 77.1451 179.52 79.0414C180.6 80.9359 182.16 82.5104 184.041 83.6058C185.93 84.707 188.076 85.287 190.261 85.287C192.445 85.287 194.591 84.707 196.481 83.6058C198.362 82.5104 199.921 80.9359 201.002 79.0414C202.099 77.1451 202.676 74.9914 202.676 72.7986C202.676 70.6058 202.099 68.452 201.002 66.5558C199.904 64.6726 198.349 63.1 196.481 61.9852C194.592 60.886 192.444 60.3139 190.261 60.3282ZM190.261 57.2933C192.966 57.2762 195.625 57.9957 197.956 59.3752C200.307 60.7258 202.256 62.6831 203.601 65.0444C204.963 67.3943 205.68 70.0646 205.68 72.7834C205.68 75.5022 204.963 78.1725 203.601 80.5224C202.258 82.8849 200.308 84.8426 197.956 86.1916C195.626 87.573 192.966 88.2946 190.261 88.2796C188.236 88.2837 186.231 87.8822 184.363 87.0984C182.494 86.3146 180.801 85.1644 179.38 83.7151C177.941 82.2861 176.799 80.5847 176.018 78.7093C175.238 76.834 174.836 74.8219 174.835 72.7895C174.818 70.0722 175.537 67.4014 176.914 65.0626C178.258 62.7001 180.207 60.7424 182.56 59.3934C184.894 58.0078 187.561 57.288 190.273 57.3115L190.261 57.2933ZM216.392 85.0626V87.8972H207.325V66.5983H205.832V63.7637H207.325V57.6939H216.392V60.5831H210.347V63.794H217.866V66.6286H210.371V85.1415L216.392 85.0626ZM222.847 87.8972H219.825V57.6696H222.847V64.0975L228.118 57.6696H231.866L226.734 63.8001L232.736 87.8972H229.623L224.455 66.5072L222.865 68.4131V87.9458L222.847 87.8972ZM240.51 60.5831V87.9761H237.487V60.5831H232.972V57.7485H245.007V60.5831H240.51Z" fill="white"/>
<path d="M50.334 99.8916V93.8218H54.8916V99.8916H53.9487V94.5745H51.2709V99.9159L50.334 99.8916ZM58.7964 101.943H57.8595V93.8097H58.6997V94.9933C58.8352 94.6422 59.0629 94.3345 59.3586 94.1031C59.6544 93.8717 60.0071 93.7251 60.3793 93.679C60.7514 93.6329 61.129 93.689 61.4719 93.8414C61.8148 93.9937 62.1102 94.2366 62.3265 94.5441C62.7887 95.2101 63.0221 96.0092 62.9914 96.8203C63.0342 97.6611 62.7959 98.4922 62.3144 99.1815C62.1143 99.4514 61.8533 99.6698 61.5527 99.8186C61.2522 99.9674 60.9207 100.042 60.5856 100.037C60.2121 100.043 59.8444 99.9434 59.524 99.7503C59.2036 99.5573 58.9433 99.2783 58.7723 98.9447V101.925L58.7964 101.943ZM58.7964 95.9705V97.6822C58.8522 98.124 59.0672 98.53 59.4009 98.8233C59.6721 99.1025 60.0403 99.2657 60.4285 99.2786C60.6398 99.2746 60.8475 99.2235 61.0367 99.129C61.2259 99.0345 61.3919 98.899 61.5226 98.7323C61.8937 98.184 62.0625 97.5228 62.0001 96.8628C62.0372 96.2414 61.8855 95.6233 61.5649 95.0904C61.4415 94.9 61.2719 94.7444 61.072 94.6382C60.8721 94.532 60.6485 94.4787 60.4224 94.4834C60.2332 94.4857 60.0464 94.5261 59.873 94.6022C59.6996 94.6783 59.5432 94.7886 59.413 94.9265C59.1135 95.2145 58.9036 95.5835 58.8085 95.9887L58.7964 95.9705ZM67.6941 100.037C67.3188 100.054 66.9451 99.9783 66.6057 99.8164C66.2664 99.6545 65.9718 99.4115 65.7477 99.1086C65.2677 98.4408 65.0231 97.6313 65.0526 96.8082C65.0084 95.9637 65.2874 95.1342 65.8323 94.4895C66.077 94.2118 66.3789 93.9908 66.717 93.842C67.0552 93.6931 67.4216 93.62 67.7908 93.6276C68.1682 93.6138 68.5435 93.689 68.8868 93.8471C69.23 94.0052 69.5316 94.2418 69.7674 94.5381C70.2612 95.1909 70.5153 95.9949 70.4867 96.8142C70.5231 97.6576 70.2451 98.4843 69.7069 99.1329C69.4605 99.4256 69.1516 99.6589 68.8031 99.8154C68.4547 99.972 68.0757 100.048 67.6941 100.037ZM67.7666 99.2604C68.0014 99.2613 68.2331 99.2069 68.4431 99.1015C68.6531 98.996 68.8354 98.8426 68.9755 98.6534C69.3358 98.1181 69.5061 97.4767 69.4591 96.8324C69.5128 96.184 69.3326 95.5377 68.9514 95.0115C68.8039 94.8335 68.6191 94.6906 68.41 94.593C68.201 94.4954 67.973 94.4455 67.7424 94.447C67.5106 94.4408 67.2805 94.4892 67.0706 94.5883C66.8607 94.6874 66.6768 94.8344 66.5335 95.0176C66.163 95.5483 65.9898 96.1927 66.0439 96.8385C65.9827 97.5058 66.1559 98.1737 66.5335 98.7262C66.6783 98.9077 66.8625 99.0534 67.0721 99.1523C67.2816 99.2512 67.5109 99.3006 67.7424 99.2968L67.7666 99.2604ZM77.0149 98.0464L77.8853 98.2285C77.7277 98.7502 77.3998 99.2035 76.9544 99.5153C76.4778 99.859 75.903 100.038 75.3163 100.025C74.9376 100.039 74.5606 99.9665 74.2133 99.8142C73.866 99.6618 73.5571 99.4332 73.3095 99.145C72.7763 98.5039 72.5023 97.685 72.5419 96.8507C72.5026 95.9964 72.7878 95.159 73.3398 94.5077C73.5875 94.2205 73.8952 93.9917 74.241 93.8374C74.5868 93.6832 74.9622 93.6074 75.3405 93.6155C75.6995 93.6009 76.0573 93.667 76.3877 93.8087C76.7181 93.9504 77.0129 94.1644 77.2506 94.4349C77.7833 95.143 78.045 96.0197 77.9881 96.9053H73.5936C73.5936 97.8218 73.781 98.447 74.1679 98.7687C74.5015 99.0674 74.93 99.2373 75.3768 99.2482C75.7442 99.2555 76.1036 99.1403 76.3989 98.9206C76.6942 98.701 76.9087 98.3893 77.0088 98.0343L77.0149 98.0464ZM76.9605 96.2255C76.9579 95.9143 76.9006 95.6061 76.7912 95.315C76.6852 95.0437 76.5024 94.8095 76.2653 94.6412C76.0063 94.451 75.6915 94.3527 75.3707 94.362C75.1454 94.3566 74.9214 94.3986 74.7131 94.4853C74.5049 94.5721 74.3171 94.7017 74.1618 94.8658C73.8238 95.2388 73.6307 95.7214 73.6178 96.2255H76.9605ZM83.3436 95.9402L85.4773 99.8856H84.4135L82.6545 96.5593L81.4153 98.01V99.8856H80.4784V93.8158H81.4153V96.1162C81.4153 96.5532 81.4153 96.881 81.3791 97.1056C81.564 96.834 81.7659 96.5745 81.9835 96.3287L84.22 93.8158H85.2476L83.3557 95.9523L83.3436 95.9402ZM88.1793 99.8856V94.5745H86.5049V93.834H90.8147V94.5745H89.1222V99.9159L88.1793 99.8856ZM93.7705 99.3089V99.8856H92.8276V93.8158H93.7705V97.0024C93.7705 97.4455 93.7705 97.9129 93.7282 98.3985C93.9942 97.9796 94.2541 97.6033 94.514 97.2573L96.6236 94.4592V93.8036H97.5665V99.8734H96.6236V96.8385C96.6236 96.274 96.6236 95.8066 96.6659 95.4425C96.4309 95.8404 96.1662 96.2198 95.874 96.5775L93.7705 99.3271V99.3089ZM101.465 101.937H100.54V93.8036H101.387V94.9872C101.522 94.6361 101.75 94.3285 102.046 94.097C102.341 93.8656 102.694 93.719 103.066 93.6729C103.438 93.6269 103.816 93.683 104.159 93.8353C104.502 93.9877 104.797 94.2305 105.013 94.5381C105.45 95.2319 105.682 96.0359 105.682 96.8567C105.682 97.6775 105.45 98.4815 105.013 99.1754C104.814 99.4504 104.552 99.6733 104.249 99.8254C103.946 99.9775 103.611 100.054 103.273 100.049C102.899 100.055 102.531 99.9555 102.211 99.7625C101.891 99.5695 101.63 99.2904 101.459 98.9569V101.937H101.465ZM101.465 95.9645V97.6762C101.517 98.1192 101.733 98.5265 102.07 98.8173C102.339 99.0961 102.705 99.2593 103.091 99.2725C103.303 99.2689 103.511 99.218 103.7 99.1235C103.889 99.029 104.055 98.8933 104.185 98.7262C104.559 98.1792 104.729 97.517 104.663 96.8567C104.699 96.2362 104.549 95.619 104.234 95.0843C104.11 94.8948 103.94 94.7397 103.74 94.6336C103.54 94.5275 103.317 94.4738 103.091 94.4774C102.902 94.4797 102.715 94.5201 102.542 94.5962C102.368 94.6723 102.212 94.7826 102.082 94.9205C101.78 95.2067 101.57 95.5764 101.477 95.9827L101.465 95.9645ZM110.357 100.037C109.981 100.058 109.606 99.9854 109.265 99.8267C108.924 99.668 108.626 99.4277 108.398 99.1268C107.918 98.459 107.674 97.6495 107.703 96.8264C107.661 95.9811 107.942 95.1515 108.489 94.5077C108.732 94.2298 109.033 94.0086 109.37 93.8598C109.708 93.7109 110.073 93.6378 110.442 93.6458C110.819 93.632 111.194 93.7072 111.538 93.8653C111.881 94.0234 112.182 94.2601 112.418 94.5563C112.912 95.2091 113.166 96.0132 113.137 96.8324C113.174 97.6758 112.896 98.5025 112.358 99.1511C112.111 99.4441 111.803 99.6776 111.454 99.8342C111.106 99.9908 110.726 100.066 110.345 100.056L110.357 100.037ZM110.429 99.2604C110.664 99.2623 110.896 99.2083 111.107 99.1028C111.317 98.9973 111.499 98.8433 111.638 98.6534C112.001 98.1191 112.174 97.4775 112.128 96.8324C112.182 96.184 112.001 95.5377 111.62 95.0115C111.472 94.8348 111.287 94.6928 111.078 94.5953C110.869 94.4978 110.642 94.4472 110.411 94.447C110.18 94.4413 109.95 94.4899 109.74 94.589C109.53 94.688 109.346 94.8347 109.202 95.0176C108.832 95.5483 108.659 96.1927 108.713 96.8385C108.652 97.5058 108.825 98.1737 109.202 98.7262C109.347 98.9077 109.531 99.0534 109.741 99.1523C109.951 99.2512 110.18 99.3006 110.411 99.2968L110.429 99.2604ZM115.725 99.8674V93.7975H118.547C119.756 93.7975 120.403 94.2892 120.403 95.2725C120.409 95.5837 120.31 95.8878 120.122 96.1356C119.935 96.3834 119.67 96.5605 119.369 96.6382C119.735 96.6972 120.066 96.8884 120.301 97.1757C120.536 97.463 120.658 97.8267 120.645 98.1982C120.655 98.4197 120.621 98.6411 120.545 98.8494C120.469 99.0578 120.353 99.249 120.204 99.4121C120.045 99.5696 119.856 99.6925 119.648 99.7729C119.44 99.8534 119.217 99.8897 118.995 99.8795L115.725 99.8674ZM116.661 96.3165H118.547C118.671 96.3322 118.797 96.3188 118.915 96.2772C119.033 96.2356 119.139 96.167 119.226 96.0769C119.313 95.9868 119.378 95.8776 119.415 95.758C119.452 95.6384 119.462 95.5116 119.442 95.3878C119.455 95.2681 119.441 95.1469 119.401 95.0336C119.36 94.9203 119.294 94.818 119.207 94.7346C119.12 94.6512 119.016 94.589 118.901 94.5528C118.787 94.5166 118.666 94.5074 118.547 94.5259H116.661V96.3165ZM116.661 99.1268H118.547C118.689 99.1496 118.834 99.1389 118.971 99.0957C119.108 99.0525 119.233 98.9779 119.336 98.8778C119.439 98.7777 119.518 98.6548 119.566 98.519C119.613 98.3831 119.629 98.2379 119.611 98.095C119.632 97.9502 119.618 97.8026 119.572 97.664C119.525 97.5254 119.447 97.3995 119.344 97.2964C119.241 97.1933 119.115 97.1158 118.977 97.0701C118.838 97.0243 118.691 97.0115 118.547 97.0328H116.661V99.1268ZM127.971 99.8674H127.034C127.004 99.6731 126.961 99.3089 126.931 98.7748C126.744 99.1749 126.44 99.5089 126.061 99.733C125.681 99.9572 125.243 100.061 124.804 100.031C124.52 100.05 124.236 100.012 123.968 99.9177C123.7 99.8239 123.454 99.6767 123.244 99.4849C123.067 99.3201 122.927 99.1199 122.832 98.8972C122.738 98.6744 122.69 98.4342 122.694 98.1921C122.691 97.8944 122.76 97.6004 122.896 97.3359C123.032 97.0713 123.23 96.8443 123.474 96.6746C124.275 96.2027 125.202 95.9907 126.127 96.0677C126.291 96.0677 126.563 96.0677 126.931 96.0677C126.948 95.7157 126.91 95.3633 126.816 95.0236C126.731 94.7975 126.562 94.6129 126.345 94.5077C126.051 94.3671 125.727 94.3005 125.402 94.3135C124.447 94.3135 123.891 94.6837 123.734 95.4121L122.863 95.2604C123.075 94.1435 123.963 93.5851 125.541 93.5851C125.859 93.5548 126.18 93.588 126.485 93.6828C126.79 93.7776 127.073 93.9321 127.318 94.1375C127.719 94.6961 127.904 95.3822 127.838 96.0677V98.6534C127.834 99.0499 127.878 99.4455 127.971 99.8309V99.8674ZM126.931 96.8324C126.544 96.8324 126.254 96.796 126.055 96.796C125.454 96.7621 124.855 96.89 124.32 97.1663C124.131 97.2707 123.974 97.4258 123.867 97.6145C123.76 97.8031 123.708 98.0178 123.716 98.2346C123.713 98.3777 123.741 98.5196 123.799 98.6506C123.856 98.7816 123.941 98.8985 124.048 98.9933C124.315 99.2203 124.66 99.3336 125.009 99.3089C125.273 99.3162 125.535 99.2657 125.777 99.1609C126.019 99.0561 126.236 98.8994 126.411 98.7019C126.768 98.302 126.962 97.7821 126.955 97.2452C126.955 97.1299 126.955 96.9963 126.955 96.8446L126.931 96.8324ZM130.794 99.8674V93.7975H131.737V96.3165H134.626V93.7975H135.563V99.8674H134.626V97.0449H131.737V99.8674H130.794ZM139.419 99.2907V99.8674H138.476V93.7975H139.419V97.0024C139.419 97.4455 139.419 97.9129 139.377 98.3985C139.637 97.9796 139.903 97.6033 140.163 97.2573L142.272 94.4592V93.8036H143.215V99.8734H142.248V96.8385C142.248 96.274 142.248 95.8066 142.291 95.4425C142.056 95.8404 141.791 96.2198 141.499 96.5775L139.395 99.3271L139.419 99.2907ZM150.167 98.0768L151.043 98.2589C150.882 98.7787 150.555 99.2308 150.112 99.5457C149.636 99.8893 149.061 100.068 148.474 100.056C148.095 100.069 147.718 99.9975 147.371 99.8451C147.024 99.6928 146.715 99.4639 146.467 99.1754C145.934 98.5342 145.66 97.7154 145.7 96.881C145.662 96.028 145.944 95.1917 146.492 94.5381C146.741 94.2507 147.049 94.0218 147.396 93.8676C147.743 93.7135 148.119 93.6377 148.498 93.6458C148.857 93.6313 149.215 93.6973 149.546 93.839C149.876 93.9808 150.171 94.1947 150.408 94.4652C150.938 95.1748 151.2 96.0504 151.146 96.9356H146.745C146.705 97.2693 146.735 97.608 146.834 97.9292C146.933 98.2503 147.098 98.5468 147.32 98.7991C147.655 99.0955 148.082 99.2651 148.529 99.2786C148.895 99.2845 149.253 99.1687 149.547 98.9491C149.841 98.7296 150.055 98.4186 150.155 98.0646L150.167 98.0768ZM150.118 96.2558C150.113 95.945 150.056 95.6373 149.949 95.3453C149.841 95.0753 149.659 94.8416 149.423 94.6716C149.162 94.4813 148.845 94.3831 148.523 94.3924C148.297 94.3858 148.073 94.4273 147.864 94.5141C147.656 94.6009 147.468 94.7312 147.314 94.8962C146.974 95.2685 146.779 95.751 146.764 96.2558H150.118ZM164.505 97.7854L165.357 97.9371C165.273 98.5358 164.992 99.0891 164.559 99.5092C164.311 99.7179 164.024 99.8744 163.714 99.9696C163.405 100.065 163.08 100.097 162.758 100.063C162.436 100.03 162.124 99.9318 161.841 99.7751C161.557 99.6185 161.308 99.4063 161.107 99.1511C160.658 98.4843 160.429 97.692 160.455 96.8871C160.424 96.0648 160.667 95.2556 161.144 94.5866C161.36 94.2912 161.645 94.0533 161.974 93.8936C162.302 93.7339 162.665 93.6571 163.03 93.6701C163.322 93.6585 163.613 93.7064 163.886 93.8107C164.159 93.915 164.409 94.0736 164.619 94.2771C165.023 94.6963 165.281 95.2347 165.357 95.8127L164.505 95.9705C164.347 94.969 163.864 94.4713 163.054 94.4713C162.811 94.4603 162.571 94.5161 162.357 94.6328C162.144 94.7494 161.967 94.9223 161.845 95.1329C161.542 95.6546 161.395 96.2532 161.422 96.8567C161.384 97.4913 161.529 98.1233 161.839 98.6777C161.959 98.8808 162.131 99.0481 162.337 99.1623C162.543 99.2764 162.776 99.3334 163.011 99.3271C163.791 99.3271 164.287 98.8173 164.492 97.8097L164.505 97.7854ZM169.945 100.08C169.569 100.097 169.196 100.021 168.856 99.8589C168.517 99.697 168.222 99.4539 167.998 99.1511C167.518 98.4833 167.274 97.6738 167.303 96.8507C167.259 96.0062 167.538 95.1767 168.083 94.532C168.328 94.2542 168.629 94.0333 168.968 93.8845C169.306 93.7356 169.672 93.6625 170.041 93.6701C170.419 93.6563 170.794 93.7315 171.137 93.8896C171.481 94.0477 171.782 94.2843 172.018 94.5805C172.512 95.2334 172.766 96.0374 172.737 96.8567C172.774 97.7001 172.496 98.5268 171.958 99.1754C171.706 99.462 171.393 99.6882 171.043 99.8374C170.692 99.9865 170.313 100.055 169.933 100.037L169.945 100.08ZM170.017 99.3029C170.252 99.3038 170.484 99.2494 170.694 99.1439C170.904 99.0385 171.086 98.885 171.226 98.6959C171.586 98.1606 171.757 97.5192 171.71 96.8749C171.763 96.2264 171.583 95.5802 171.202 95.054C171.055 94.876 170.87 94.7331 170.661 94.6355C170.452 94.5379 170.224 94.488 169.993 94.4895C169.761 94.4833 169.531 94.5317 169.321 94.6308C169.111 94.7299 168.927 94.8769 168.784 95.0601C168.414 95.5908 168.24 96.2352 168.294 96.881C168.233 97.5483 168.406 98.2161 168.784 98.7687C168.929 98.9501 169.113 99.0959 169.323 99.1948C169.532 99.2937 169.762 99.3431 169.993 99.3393L170.017 99.3029ZM175.222 99.9098V93.84H178.734V94.5745H176.165V99.9159L175.222 99.9098ZM179.628 99.9098L181.623 93.84H182.747L184.706 99.9098H183.726L182.209 94.9812H182.022L180.493 99.9098H179.628ZM191.675 99.9098H190.726C190.69 99.7156 190.653 99.3514 190.617 98.8173C190.431 99.2169 190.128 99.5507 189.75 99.7748C189.371 99.999 188.934 100.103 188.496 100.074C188.211 100.093 187.926 100.055 187.657 99.9609C187.388 99.8671 187.141 99.7196 186.93 99.5274C186.751 99.3604 186.609 99.1573 186.513 98.9314C186.417 98.7055 186.37 98.4619 186.374 98.2164C186.37 97.9187 186.44 97.6247 186.576 97.3602C186.712 97.0956 186.91 96.8686 187.154 96.6989C187.953 96.2278 188.877 96.0159 189.801 96.0919C189.97 96.0919 190.236 96.0919 190.605 96.0919C190.62 95.7404 190.584 95.3886 190.496 95.0479C190.409 94.8231 190.24 94.6391 190.025 94.532C189.729 94.3916 189.403 94.3249 189.076 94.3378C188.121 94.3378 187.565 94.708 187.408 95.4364L186.543 95.2846C186.757 94.1678 187.647 93.6094 189.215 93.6094C189.533 93.577 189.854 93.6092 190.159 93.7041C190.465 93.799 190.748 93.9546 190.992 94.1617C191.395 94.7195 191.582 95.4057 191.518 96.0919V98.6777C191.513 99.0742 191.558 99.4697 191.651 99.8552L191.675 99.9098ZM190.629 96.8749C190.242 96.8749 189.952 96.8385 189.753 96.8385C189.154 96.8045 188.557 96.9324 188.024 97.2088C187.835 97.3137 187.679 97.469 187.572 97.6575C187.465 97.846 187.413 98.0604 187.42 98.2771C187.418 98.4206 187.448 98.5626 187.506 98.6936C187.565 98.8246 187.651 98.9413 187.758 99.0358C188.024 99.2646 188.37 99.3781 188.719 99.3514C188.982 99.3604 189.244 99.3105 189.485 99.2056C189.727 99.1006 189.942 98.9431 190.116 98.7444C190.476 98.3466 190.673 97.8258 190.666 97.2877C190.666 97.1744 190.666 97.0408 190.666 96.8871L190.629 96.8749ZM198.113 97.7854L198.965 97.9371C198.883 98.5367 198.602 99.0908 198.167 99.5092C197.919 99.7169 197.632 99.8727 197.323 99.9673C197.015 100.062 196.69 100.093 196.369 100.06C196.048 100.027 195.737 99.929 195.454 99.7729C195.171 99.6168 194.922 99.4054 194.721 99.1511C194.267 98.4863 194.036 97.693 194.063 96.8871C194.031 96.0637 194.276 95.2536 194.758 94.5866C194.973 94.2904 195.258 94.052 195.587 93.8921C195.916 93.7323 196.279 93.6561 196.644 93.6701C196.935 93.6583 197.225 93.706 197.498 93.8104C197.77 93.9147 198.018 94.0735 198.227 94.2771C198.636 94.693 198.895 95.233 198.965 95.8127L198.113 95.9705C197.955 94.969 197.472 94.4713 196.662 94.4713C196.419 94.4603 196.179 94.5161 195.965 94.6328C195.752 94.7494 195.575 94.9223 195.453 95.1329C195.155 95.6564 195.01 96.2541 195.036 96.8567C194.998 97.4913 195.143 98.1233 195.453 98.6777C195.572 98.8817 195.744 99.0497 195.95 99.164C196.157 99.2783 196.39 99.3346 196.626 99.3271C197.405 99.3271 197.895 98.8173 198.1 97.8097L198.113 97.7854ZM203.553 100.08C203.177 100.096 202.804 100.02 202.465 99.8582C202.125 99.6963 201.831 99.4535 201.606 99.1511C201.126 98.4833 200.882 97.6738 200.911 96.8507C200.869 96.0054 201.15 95.1758 201.697 94.532C201.94 94.2541 202.241 94.0329 202.578 93.884C202.915 93.7351 203.281 93.6621 203.649 93.6701C204.027 93.6563 204.402 93.7315 204.745 93.8896C205.089 94.0477 205.39 94.2843 205.626 94.5805C206.12 95.2334 206.374 96.0374 206.345 96.8567C206.382 97.7001 206.104 98.5268 205.566 99.1754C205.319 99.4681 205.01 99.7013 204.662 99.8579C204.313 100.014 203.934 100.09 203.553 100.08ZM203.625 99.3029C203.86 99.3048 204.092 99.2508 204.302 99.1453C204.512 99.0398 204.695 98.8858 204.834 98.6959C205.197 98.1616 205.369 97.52 205.324 96.8749C205.377 96.2264 205.197 95.5802 204.816 95.054C204.667 94.8773 204.482 94.7353 204.274 94.6378C204.065 94.5403 203.837 94.4897 203.607 94.4895C203.375 94.4838 203.145 94.5324 202.936 94.6315C202.726 94.7305 202.542 94.8772 202.398 95.0601C202.028 95.5908 201.854 96.2352 201.909 96.881C201.847 97.5483 202.021 98.2161 202.398 98.7687C202.543 98.9501 202.727 99.0959 202.937 99.1948C203.146 99.2937 203.376 99.3431 203.607 99.3393L203.625 99.3029ZM208.92 99.9098V93.84H211.743C212.982 93.84 213.599 94.3317 213.599 95.315C213.605 95.6262 213.506 95.9303 213.318 96.1781C213.131 96.4259 212.865 96.6029 212.565 96.6807C212.922 96.7444 213.244 96.9343 213.474 97.216C213.703 97.4976 213.825 97.8525 213.816 98.2164C213.826 98.4379 213.792 98.6593 213.717 98.8676C213.641 99.076 213.525 99.2672 213.375 99.4303C213.217 99.5879 213.028 99.7107 212.819 99.7912C212.611 99.8716 212.389 99.9079 212.166 99.8977L208.92 99.9098ZM209.857 96.359H211.743C211.867 96.3747 211.993 96.3613 212.111 96.3197C212.228 96.2781 212.335 96.2095 212.422 96.1194C212.509 96.0292 212.573 95.9201 212.611 95.8005C212.648 95.6809 212.657 95.5541 212.638 95.4303C212.651 95.3106 212.637 95.1894 212.596 95.0761C212.556 94.9628 212.489 94.8605 212.403 94.7771C212.316 94.6937 212.212 94.6315 212.097 94.5953C211.983 94.5591 211.862 94.5499 211.743 94.5684H209.857V96.359ZM209.857 99.1693H211.743C211.885 99.1921 212.03 99.1814 212.167 99.1382C212.304 99.095 212.429 99.0204 212.532 98.9203C212.635 98.8202 212.714 98.6973 212.761 98.5615C212.809 98.4256 212.825 98.2804 212.807 98.1375C212.827 97.9927 212.814 97.8451 212.767 97.7065C212.721 97.5679 212.643 97.442 212.54 97.3389C212.437 97.2358 212.311 97.1583 212.173 97.1125C212.034 97.0668 211.887 97.054 211.743 97.0752H209.857V99.1693ZM221.167 99.9098H220.224C220.17 99.5478 220.135 99.1831 220.121 98.8173C219.933 99.2174 219.63 99.5514 219.25 99.7755C218.871 99.9997 218.433 100.104 217.993 100.074C217.71 100.093 217.426 100.054 217.158 99.9602C216.89 99.8664 216.644 99.7192 216.434 99.5274C216.257 99.3626 216.117 99.1624 216.022 98.9397C215.927 98.7169 215.88 98.4767 215.884 98.2346C215.88 97.9369 215.95 97.6429 216.085 97.3784C216.221 97.1138 216.42 96.8868 216.663 96.7171C217.463 96.246 218.387 96.0341 219.311 96.1101C219.48 96.1101 219.752 96.1101 220.121 96.1101C220.138 95.7582 220.099 95.4058 220.006 95.0661C219.92 94.84 219.752 94.6554 219.535 94.5502C219.241 94.4096 218.917 94.3429 218.592 94.356C217.637 94.356 217.08 94.7262 216.923 95.4546L216.053 95.3029C216.262 94.186 217.153 93.6276 218.725 93.6276C219.043 93.5945 219.364 93.6264 219.669 93.7213C219.975 93.8162 220.258 93.9723 220.502 94.1799C220.907 94.7365 221.095 95.4237 221.028 96.1101V98.6959C221.023 99.0924 221.068 99.4879 221.161 99.8734L221.167 99.9098ZM220.127 96.8749C219.74 96.8749 219.45 96.8385 219.251 96.8385C218.65 96.8046 218.051 96.9324 217.516 97.2088C217.326 97.3132 217.17 97.4683 217.063 97.657C216.956 97.8456 216.904 98.0603 216.911 98.2771C216.909 98.4202 216.937 98.5621 216.995 98.6931C217.052 98.8241 217.137 98.941 217.244 99.0358C217.511 99.2634 217.856 99.3767 218.205 99.3514C218.468 99.3587 218.731 99.3082 218.973 99.2034C219.215 99.0985 219.431 98.9419 219.607 98.7444C219.964 98.3444 220.158 97.8246 220.151 97.2877C220.151 97.1724 220.151 97.0388 220.151 96.8871L220.127 96.8749ZM223.989 99.9098V93.84H224.926V96.359H227.822V93.84H228.759V99.9098H227.822V97.0874H224.926V99.9098H223.989ZM232.615 99.3332V99.9098H231.648V93.84H232.591V97.0024C232.591 97.4455 232.591 97.9129 232.549 98.3985C232.791 98.0051 233.054 97.6243 233.334 97.2573L235.444 94.4592V93.8036H236.387V99.8734H235.444V96.8385C235.444 96.274 235.444 95.8066 235.486 95.4425C235.251 95.8404 234.987 96.2198 234.694 96.5775L232.591 99.3271L232.615 99.3332ZM243.362 98.1192L244.239 98.3013C244.078 98.8212 243.75 99.2733 243.308 99.5881C242.831 99.9318 242.257 100.111 241.67 100.098C241.29 100.111 240.912 100.039 240.564 99.8871C240.216 99.7348 239.906 99.5061 239.657 99.2179C239.153 98.5508 238.88 97.7365 238.88 96.8992C238.88 96.0619 239.153 95.2476 239.657 94.5805C239.906 94.2932 240.215 94.0643 240.562 93.9101C240.908 93.756 241.285 93.6802 241.664 93.6883C242.023 93.6738 242.381 93.7398 242.711 93.8815C243.041 94.0233 243.336 94.2372 243.574 94.5077C244.104 95.2173 244.365 96.0929 244.311 96.9781H239.911C239.87 97.3118 239.9 97.6505 239.999 97.9716C240.098 98.2928 240.264 98.5893 240.485 98.8416C240.82 99.1379 241.248 99.3076 241.694 99.3211C242.061 99.327 242.419 99.2112 242.713 98.9916C243.007 98.7721 243.22 98.4611 243.32 98.1071L243.362 98.1192ZM243.308 96.2983C243.307 95.9875 243.252 95.6793 243.145 95.3878C243.035 95.1189 242.853 94.8857 242.619 94.7141C242.358 94.5238 242.041 94.4256 241.718 94.4349C241.493 94.4283 241.268 94.4697 241.06 94.5566C240.852 94.6434 240.664 94.7737 240.509 94.9387C240.17 95.311 239.974 95.7935 239.959 96.2983H243.308Z" fill="white"/>
<path fill-rule="evenodd" clip-rule="evenodd" d="M157.165 91.9609H158.906L155.032 101.351H153.297L157.165 91.9609Z" fill="url(#paint1_linear)"/>
<path fill-rule="evenodd" clip-rule="evenodd" d="M21.6943 62.8672L22.601 62.9704V65.1616L21.6943 65.022V62.8672ZM28.0351 32.154L29.1836 31.6562V34.1327L28.0351 34.5819V32.154ZM28.0351 35.6502L29.1836 35.2253V37.6957L28.0351 38.0781V35.6502ZM28.0351 39.1403L29.1836 38.7822V41.2647L28.0351 41.5743V39.1464V39.1403ZM28.0351 42.6305L29.2138 42.3755V44.8034L28.0654 45.0462V42.6183L28.0351 42.6305ZM28.0351 46.1206L29.1836 45.9021V48.3846L28.0351 48.5546V46.1267V46.1206ZM28.0351 49.6168L29.1836 49.465V51.9476L28.0351 52.0508V49.6229V49.6168ZM28.0351 53.1069L29.1836 53.028V55.5106L28.0351 55.5409V53.113V53.1069ZM28.0351 56.5971H29.2138V59.0735L28.0654 59.0371V56.6092L28.0351 56.5971ZM28.0351 60.0872L29.1836 60.154V62.6304L28.0351 62.5212V60.0933V60.0872ZM28.0351 63.5895L29.1836 63.7169V66.1874L28.0351 66.0113V63.5834V63.5895ZM26.3064 32.9006L27.3884 32.4332V34.8611L26.3064 35.2799V32.9248V32.9006ZM26.3064 36.2936L27.3884 35.893V38.3209L26.3064 38.679V36.3057V36.2936ZM26.3064 39.6745L27.4004 39.3406V41.7685L26.3185 42.0599V39.6987L26.3064 39.6745ZM26.3064 43.0614L27.3884 42.7943V45.2223L26.3064 45.4468V43.0857V43.0614ZM26.3064 46.4484L27.3884 46.242V48.6699L26.3064 48.8277V46.4666V46.4484ZM26.3064 49.8353L27.3884 49.6957V52.1236L26.3064 52.2207V49.8535V49.8353ZM26.3064 53.2283L27.3884 53.1555V55.5834H26.3064V53.2283ZM26.3064 56.6153H27.3884V59.0432L26.3064 59.0068V56.6517V56.6153ZM26.3064 59.9962L27.3884 60.0569V62.4848L26.3064 62.3816V59.9779V59.9962ZM26.3064 63.3892L27.3884 63.5106V65.9385L26.3064 65.7685V63.4195V63.3892ZM24.6804 33.5986L25.6959 33.1616V35.4924L24.6804 35.893V33.5986ZM24.6804 36.8945L25.6959 36.5182V38.849L24.6804 39.1828V36.9127V36.8945ZM24.6804 40.1843L25.6959 39.8626V42.1995L24.6804 42.4726V40.1843ZM24.6804 43.4681L25.6959 43.2132V45.544L24.6804 45.7564V43.4681ZM24.6804 46.7579L25.6959 46.5637V48.9006L24.6804 49.0523V46.7579ZM24.6804 50.0478L25.6959 49.9142V52.2511L24.6804 52.3421V50.0478ZM24.6804 53.3376L25.6959 53.2708V55.6016H24.6804V53.3133V53.3376ZM24.6804 56.6274H25.6959V58.9643L24.6804 58.9279V56.6396V56.6274ZM24.6804 59.9172L25.6959 59.9658V62.2966L24.6804 62.1995V59.9172ZM24.6804 63.2071L25.6959 63.3224V65.6471L24.6804 65.4893V63.2071ZM23.1692 34.2663L24.1303 33.8474V36.1115L23.1692 36.4878V34.2663ZM23.1692 37.4651L24.1303 37.1069V39.371L23.1692 39.6866V37.4651ZM23.1692 40.6578L24.1303 40.3603V42.6244L23.1692 42.8854V40.6578ZM23.1692 43.8505L24.1303 43.6138V45.8778L23.1692 46.0781V43.8505ZM23.1692 47.0493L24.1303 46.8672V49.1312L23.1692 49.2769V47.0493ZM23.1692 50.242L24.1303 50.1206V52.3907L23.1692 52.4696V50.2663V50.242ZM23.1692 53.4408L24.1303 53.374V55.6441H23.1692V53.4165V53.4408ZM23.1692 56.6335H24.1303V58.9036L23.1692 58.8672V56.6396V56.6335ZM23.1692 59.8323L24.1303 59.8869V62.1449L23.1692 62.0538V59.8323ZM23.1692 63.0311L24.1303 63.1403V65.3983L23.1692 65.2465V63.0128V63.0311ZM21.7185 34.8915L22.6252 34.4969V36.7003L21.7185 37.0523V34.8915ZM21.7185 38.0053L22.6252 37.6654V39.8626L21.7185 40.1661V38.0053ZM21.7185 41.1069L22.6252 40.8277V43.0311L21.7185 43.2739V41.1069ZM21.7185 44.2147L22.6252 43.9901V46.1874L21.7185 46.3816V44.1965V44.2147ZM21.7185 47.3224L22.6252 47.1525V49.3558L21.7185 49.4893V47.3224ZM21.7185 50.4302L22.6252 50.3148V52.5182L21.7185 52.5971V50.4302ZM21.7185 53.544L22.6252 53.4772V55.6805H21.7185V53.544ZM21.7185 56.6456H22.6252V58.849H21.7185V56.6821V56.6456ZM21.7185 59.7594L22.6252 59.808V62.0053L21.7185 61.9203V59.7594Z" fill="url(#paint2_radial)"/>
</g>
<defs>
<radialGradient id="paint0_radial" cx="0" cy="0" r="1" gradientUnits="userSpaceOnUse" gradientTransform="translate(110.937 -7.19837) scale(123.068 123.581)">
<stop stop-color="#E30613"/>
<stop offset="0.22" stop-color="#E30613"/>
<stop offset="0.8" stop-color="#8D2725"/>
<stop offset="1" stop-color="#BB1D1D"/>
</radialGradient>
<linearGradient id="paint1_linear" x1="156.102" y1="107.123" x2="156.102" y2="86.1946" gradientUnits="userSpaceOnUse">
<stop stop-color="#BB1D1D"/>
<stop offset="1" stop-color="#E30613"/>
</linearGradient>
<radialGradient id="paint2_radial" cx="0" cy="0" r="1" gradientUnits="userSpaceOnUse" gradientTransform="translate(2015.11 3655) scale(324.993 1492.43)">
<stop stop-color="#E30613"/>
<stop offset="0.22" stop-color="#E30613"/>
<stop offset="0.8" stop-color="#8D2725"/>
<stop offset="1" stop-color="#BB1D1D"/>
</radialGradient>
<clipPath id="clip0">
<rect width="245" height="120" fill="white"/>
</clipPath>
</defs>
</svg>
