<svg width="20" height="14" viewBox="0 0 20 14" fill="none" xmlns="http://www.w3.org/2000/svg">
<path d="M13.2578 7.10544L20.0001 11.4456V2.58203L13.2578 7.10544Z" fill="white"/>
<path d="M0 2.58203V11.4456L6.74228 7.10544L0 2.58203Z" fill="white"/>
<path d="M18.749 0H1.24957C0.62584 0 0.130856 0.473469 0.0371094 1.08312L9.99928 7.76642L19.9614 1.08312C19.8677 0.473469 19.3727 0 18.749 0Z" fill="white"/>
<path d="M12.1121 7.87237L10.3434 9.05858C10.2384 9.12859 10.1197 9.16295 9.99971 9.16295C9.87971 9.16295 9.76096 9.12859 9.65597 9.05858L7.88728 7.87109L0.0400391 12.9253C0.136286 13.5298 0.628769 13.9995 1.25 13.9995H18.7494C19.3706 13.9995 19.8631 13.5298 19.9594 12.9253L12.1121 7.87237Z" fill="white"/>
</svg>
