<svg width="24" height="17" viewBox="0 0 24 17" fill="none" xmlns="http://www.w3.org/2000/svg">
<path d="M15.9102 8.52964L24.0009 13.7378V3.10156L15.9102 8.52964Z" fill="#1E1E1E"/>
<path d="M0 3.10156V13.7378L8.0907 8.52964L0 3.10156Z" fill="#1E1E1E"/>
<path d="M22.5006 0H1.49997C0.751445 0 0.157426 0.5682 0.0449219 1.29983L12.0003 9.32032L23.9557 1.29983C23.8432 0.5682 23.2492 0 22.5006 0Z" fill="#1E1E1E"/>
<path d="M14.5343 9.44684L12.4118 10.8704C12.2858 10.9544 12.1433 10.9956 11.9993 10.9956C11.8553 10.9956 11.7128 10.9544 11.5867 10.8704L9.46418 9.44531L0.046875 15.5107C0.162379 16.2362 0.753398 16.7998 1.49892 16.7998H22.4996C23.2451 16.7998 23.8361 16.2362 23.9516 15.5107L14.5343 9.44684Z" fill="#1E1E1E"/>
</svg>
