<svg width="24" height="24" viewBox="0 0 24 24" fill="none" xmlns="http://www.w3.org/2000/svg">
<path d="M24 19.0641C22.8772 18.601 19.0689 17.2819 15.528 16.0964C15.328 16.3019 15.0026 16.6253 14.4821 17.1471C12.8207 18.8146 12.8197 18.8146 12.3835 18.5997C9.33154 17.1285 6.8704 14.664 5.40336 11.61C5.2721 11.3312 5.34929 10.9983 5.59 10.8058L8.53646 8.44783C7.32706 5.46969 5.54082 1.16044 4.97113 0C2.2859 0.184668 0.1583 2.33945 0.00879445 5.02675C0 5.12348 0 5.22412 0 5.32345C0 5.42279 0 5.52343 0.00521151 5.61625C0.121493 15.7062 8.26514 23.8619 18.3559 23.9935C18.4781 24 18.5774 24 18.6781 24C18.7787 24 18.8781 24 18.9709 23.9948C21.648 23.8476 23.8003 21.7374 24 19.0641V19.0641Z" fill="#E30613"/>
</svg>
