<svg width="40" height="40" viewBox="0 0 40 40" fill="none" xmlns="http://www.w3.org/2000/svg">
<path d="M17.5902 29.5885C17.5902 29.6376 17.5902 29.6991 17.563 29.7333C17.3787 29.9712 17.1593 30.1695 16.8714 30.2749C16.6213 30.3661 16.422 30.2547 16.3694 29.9949C16.3483 29.8922 16.3474 29.7842 16.3474 29.6789C16.3465 27.7435 16.3413 23.7754 16.3386 23.7271H14.9106C14.9106 23.7807 14.9088 29.3085 14.9124 30.353C14.9132 30.6356 14.9431 30.9165 15.0607 31.1789C15.1871 31.4633 15.3968 31.6432 15.7093 31.695C15.9384 31.7345 16.1622 31.709 16.3799 31.6344C16.8258 31.4808 17.1751 31.1912 17.4832 30.8436C17.5104 30.8129 17.5393 30.783 17.5911 30.7278V31.5949H19.0227V27.8006C19.0227 26.4858 19.0227 23.7148 19.0227 23.7148L17.5902 23.7184V29.5885Z" fill="white"/>
<path d="M24.3584 24.3397C24.0565 23.6963 23.4219 23.526 22.8716 23.6638C22.5381 23.7481 22.2677 23.9403 22.0457 24.1887C21.972 24.2721 21.8912 24.4336 21.8912 24.4336C21.8912 24.4336 21.8912 22.0576 21.8912 20.9219H20.457V31.5904H21.8912V30.9918C21.8912 30.9918 21.993 31.0998 22.0299 31.1393C22.359 31.4965 22.7584 31.6922 23.2508 31.6966C23.8564 31.7028 24.2777 31.4096 24.469 30.8338C24.5577 30.5661 24.5866 30.2905 24.5875 30.0114C24.5893 28.5202 24.5893 27.029 24.5866 25.5377C24.5866 25.1252 24.5366 24.7198 24.3584 24.3397ZM23.1103 29.8333C23.1103 29.9132 23.1007 29.994 23.084 30.0721C23.0182 30.3845 22.7803 30.525 22.4433 30.4556C22.2388 30.4135 22.079 30.2959 21.9421 30.1476C21.936 30.1405 21.8956 30.0861 21.8956 30.0861V29.9694L21.8921 25.2324C21.8921 25.2324 21.9228 25.1446 21.9904 25.0858C22.1589 24.9366 22.345 24.8427 22.5776 24.8655C22.7759 24.8848 22.9339 24.9761 23.0076 25.1595C23.0629 25.2991 23.1068 25.4545 23.1077 25.6037C23.1147 27.0132 23.1121 28.4228 23.1103 29.8333Z" fill="white"/>
<path d="M19.2002 15.0425C19.5346 15.0425 19.8066 14.7705 19.8066 14.4361V10.1572C19.8066 9.82278 19.5345 9.55078 19.2002 9.55078C18.8658 9.55078 18.5938 9.82287 18.5938 10.1572V14.4361C18.5937 14.7704 18.8658 15.0425 19.2002 15.0425Z" fill="white"/>
<path d="M14.9131 20.9258H9.94531V22.4547H11.6191V31.5944H13.2358V22.4512H14.9131V20.9258Z" fill="white"/>
<path d="M28.4539 28.7967V29.8087C28.4539 30.1624 28.1677 30.4485 27.8149 30.4485C27.4612 30.4485 27.175 30.1624 27.175 29.8087V27.84H29.9214C29.9214 27.84 29.9372 26.4663 29.9258 25.8432C29.9214 25.5772 29.9012 25.3078 29.8468 25.048C29.7046 24.3739 29.3421 23.8657 28.6636 23.6428C28.4644 23.5769 28.2502 23.5427 28.0405 23.5295C27.3427 23.4848 26.7318 23.684 26.2543 24.2185C25.8357 24.6864 25.69 25.2498 25.6891 25.8607C25.6864 27.029 25.6812 28.1981 25.6926 29.3663C25.6961 29.6638 25.7295 29.9675 25.797 30.2572C25.9427 30.8795 26.2824 31.3684 26.8819 31.6387C27.3199 31.8371 27.7824 31.8467 28.2494 31.7783C29.0024 31.6677 29.5159 31.2639 29.7643 30.5363C29.9512 29.9912 29.9293 28.7967 29.9293 28.7967H28.4539ZM27.175 25.5141C27.175 25.1613 27.4612 24.8743 27.8149 24.8743C28.1677 24.8743 28.4539 25.1613 28.4539 25.5141V26.6192H27.175V25.5141Z" fill="white"/>
<path d="M0 0V40H40V0H0ZM22.5339 8.33737H23.9906V14.3779C23.9906 14.4579 23.997 14.5388 24.011 14.6173C24.0552 14.8662 24.2392 14.9834 24.4789 14.9003C24.7711 14.7992 24.9941 14.5969 25.1832 14.3585C25.21 14.3244 25.2051 14.2609 25.2051 14.2109V8.33737H26.6724L26.672 16.2582H25.2043L25.2061 15.4072C25.0438 15.5671 24.9053 15.7164 24.7531 15.8505C24.4833 16.0882 24.1777 16.2654 23.8202 16.3353C23.2714 16.4426 22.8039 16.2692 22.6289 15.7008C22.5706 15.5114 22.5354 15.3074 22.5339 15.1097V8.33737ZM19.2002 8.1391C20.3609 8.1391 21.3018 9.08001 21.3018 10.2407V14.3536C21.3018 15.5142 20.3609 16.4551 19.2002 16.4551C18.0395 16.4551 17.0986 15.5142 17.0986 14.3536V10.2407C17.0985 9.08001 18.0394 8.1391 19.2002 8.1391ZM13.5469 5.53572C13.5469 5.53572 14.2144 8.37082 14.533 9.7138H14.5335C14.8521 8.37082 15.5196 5.53572 15.5196 5.53572H17.1898C17.1898 5.53572 15.9066 9.79148 15.3327 11.6894C15.312 11.758 15.3026 11.8326 15.3026 11.9045L15.3033 16.2565H13.7632L13.7638 11.9045C13.7638 11.8326 13.7543 11.7581 13.7337 11.6894C13.1599 9.79148 11.8767 5.53572 11.8767 5.53572H13.5469ZM31.9117 30.7958C31.9117 32.7426 30.3564 34.333 28.4105 34.3742C22.8046 34.4945 17.196 34.4945 11.5892 34.3742C9.6442 34.333 8.08889 32.7426 8.08889 30.7958V22.0398C8.08889 20.0939 9.6442 18.5035 11.5892 18.4622C17.196 18.342 22.8046 18.342 28.4105 18.4622C30.3564 18.5035 31.9117 20.0939 31.9117 22.0398V30.7958Z" fill="white"/>
</svg>
